<svg width="90" height="35" viewBox="0 0 90 35" fill="none" xmlns="http://www.w3.org/2000/svg">
<path d="M20.5 6.4C20.5 5.27164 20.5004 4.45545 20.5528 3.81352C20.6048 3.17744 20.7054 2.75662 20.8815 2.41103C21.217 1.75247 21.7525 1.21703 22.411 0.881477C22.7566 0.705391 23.1774 0.604807 23.8135 0.552836C24.4554 0.500389 25.2716 0.5 26.4 0.5H63.6C64.7284 0.5 65.5446 0.500389 66.1865 0.552836C66.8226 0.604807 67.2434 0.705391 67.589 0.881477C68.2475 1.21703 68.783 1.75247 69.1185 2.41103C69.2946 2.75662 69.3952 3.17744 69.4472 3.81352C69.4996 4.45545 69.5 5.27164 69.5 6.4V33.5H20.5V6.4Z" fill="white" stroke="#EB7100"/>
<path d="M38.0524 24.8721C37.424 24.8721 36.9223 24.6745 36.5473 24.2792C36.1824 23.8839 36 23.4025 36 22.8349C36 22.4802 36.0912 22.1457 36.2737 21.8315L42.8566 10.049C43.0492 9.70442 43.3077 9.44596 43.632 9.27366C43.9563 9.09122 44.2908 9 44.6354 9C44.98 9 45.3094 9.09122 45.6236 9.27366C45.9378 9.44596 46.1963 9.70442 46.399 10.049L52.9972 21.8163C53.1796 22.1406 53.2708 22.4802 53.2708 22.8349C53.2708 23.4025 53.0833 23.8839 52.7083 24.2792C52.3434 24.6745 51.8468 24.8721 51.2184 24.8721H38.0524ZM44.6354 22.5613C44.9902 22.5613 45.2892 22.4346 45.5324 22.1812C45.7858 21.9278 45.9176 21.6237 45.9277 21.269C45.9277 20.9244 45.801 20.6254 45.5476 20.372C45.2942 20.1186 44.9902 19.9919 44.6354 19.9919C44.2908 19.9919 43.9918 20.1186 43.7384 20.372C43.485 20.6254 43.3583 20.9244 43.3583 21.269C43.3583 21.6237 43.485 21.9278 43.7384 22.1812C43.9918 22.4346 44.2908 22.5613 44.6354 22.5613ZM44.6354 18.9277C44.9091 18.9277 45.127 18.8466 45.2892 18.6844C45.4615 18.5223 45.5527 18.3094 45.5628 18.0459L45.6844 13.6978C45.6946 13.3937 45.6034 13.1454 45.4108 12.9528C45.2182 12.7501 44.9598 12.6488 44.6354 12.6488C44.3212 12.6488 44.0678 12.7501 43.8753 12.9528C43.6827 13.1454 43.5915 13.3937 43.6016 13.6978L43.7232 18.0459C43.7232 18.3094 43.8094 18.5223 43.9817 18.6844C44.154 18.8466 44.3719 18.9277 44.6354 18.9277Z" fill="#FFD480"/>
<path d="M44.6345 22.5609C44.9892 22.5609 45.2882 22.4342 45.5315 22.1808C45.7849 21.9275 45.9166 21.6234 45.9268 21.2687C45.9268 20.924 45.8001 20.6251 45.5467 20.3717C45.2933 20.1183 44.9892 19.9916 44.6345 19.9916C44.2899 19.9916 43.9909 20.1183 43.7375 20.3717C43.4841 20.6251 43.3574 20.924 43.3574 21.2687C43.3574 21.6234 43.4841 21.9275 43.7375 22.1808C43.9909 22.4342 44.2899 22.5609 44.6345 22.5609ZM44.6345 18.9274C44.9081 18.9274 45.1261 18.8463 45.2882 18.6841C45.4605 18.5219 45.5518 18.3091 45.5619 18.0456L45.6835 13.6975C45.6936 13.3934 45.6024 13.1451 45.4099 12.9525C45.2173 12.7498 44.9588 12.6484 44.6345 12.6484C44.3203 12.6484 44.0669 12.7498 43.8743 12.9525C43.6818 13.1451 43.5905 13.3934 43.6007 13.6975L43.7223 18.0456C43.7223 18.3091 43.8085 18.5219 43.9808 18.6841C44.1531 18.8463 44.371 18.9274 44.6345 18.9274Z" fill="#EB7100"/>
<path d="M23.7297 7C20.9266 7 20.809 21.7866 21.1182 29.8542C21.135 30.2934 21.4389 30.6678 21.8644 30.7781L30.2477 32.9497C30.3759 32.9829 30.5073 32.9906 30.6385 32.972C35.134 32.3349 42.4446 31.5556 37.1533 31.5556C30.4419 31.5556 30.4419 26.7407 30.4419 24.3333V11.8148C30.4419 7 27.3436 7 23.7297 7Z" fill="#FFD480"/>
<rect x="53" y="4" width="13" height="4" rx="1" fill="#FFD480"/>
<rect x="14" y="31" width="62" height="4" rx="1" fill="#EB7100"/>
<rect y="34" width="90" height="1" rx="0.5" fill="url(#paint0_linear_1703_141037)"/>
<rect x="13.5" y="7.5" width="14" height="27" rx="2.5" fill="white" stroke="#FFAA05"/>
<rect x="17" y="7" width="7" height="2" rx="1" fill="#FFAA05"/>
<defs>
<linearGradient id="paint0_linear_1703_141037" x1="1.50622e-08" y1="34.4999" x2="90" y2="34.4999" gradientUnits="userSpaceOnUse">
<stop stop-color="#EB7100" stop-opacity="0"/>
<stop offset="0.156127" stop-color="#EB7100"/>
<stop offset="0.823047" stop-color="#EB7100"/>
<stop offset="1" stop-color="#EB7100" stop-opacity="0"/>
</linearGradient>
</defs>
</svg>
