<svg width="90" height="35" viewBox="0 0 90 35" fill="none" xmlns="http://www.w3.org/2000/svg">
<path d="M20.5 6.4C20.5 5.27164 20.5004 4.45545 20.5528 3.81352C20.6048 3.17744 20.7054 2.75662 20.8815 2.41103C21.217 1.75247 21.7525 1.21703 22.411 0.881477C22.7566 0.705391 23.1774 0.604807 23.8135 0.552836C24.4554 0.500389 25.2716 0.5 26.4 0.5H63.6C64.7284 0.5 65.5446 0.500389 66.1865 0.552836C66.8226 0.604807 67.2434 0.705391 67.589 0.881477C68.2475 1.21703 68.783 1.75247 69.1185 2.41103C69.2946 2.75662 69.3952 3.17744 69.4472 3.81352C69.4996 4.45545 69.5 5.27164 69.5 6.4V33.5H20.5V6.4Z" fill="white" stroke="#0085EB"/>
<path d="M45 26.5046C44.8631 26.5046 44.6577 26.4618 44.4352 26.342C39.6516 23.6464 38 22.5168 38 19.4446V12.9922C38 12.1108 38.3851 11.8198 39.0954 11.5289C40.0966 11.1267 43.2971 9.93718 44.2983 9.61199C44.5208 9.54353 44.7604 9.49219 45 9.49219C45.2396 9.49219 45.4792 9.53498 45.7103 9.61199C46.7029 9.95429 49.9034 11.1181 50.9046 11.5289C51.6235 11.8284 52 12.1108 52 12.9922V19.4446C52 22.5168 50.434 23.7918 45.5648 26.342C45.3509 26.4532 45.1369 26.5046 45 26.5046ZM44.0416 21.8578C44.3325 21.8578 44.5807 21.7209 44.7604 21.4471L48.7824 15.1059C48.8936 14.9348 48.9963 14.738 48.9963 14.5411C48.9963 14.1475 48.6455 13.8908 48.2775 13.8908C48.0465 13.8908 47.824 14.0191 47.6614 14.2844L44.0073 20.1549L42.2702 17.9128C42.0562 17.6304 41.868 17.5448 41.6284 17.5448C41.2347 17.5448 40.9352 17.8615 40.9352 18.2551C40.9352 18.4434 41.0122 18.6402 41.1406 18.8113L43.2885 21.4471C43.511 21.7466 43.7506 21.8578 44.0416 21.8578Z" fill="#80C8FF"/>
<path d="M44.04 21.8616C44.3309 21.8616 44.5791 21.7247 44.7588 21.4508L48.7808 15.1097C48.892 14.9386 48.9947 14.7417 48.9947 14.5449C48.9947 14.1513 48.6439 13.8945 48.2759 13.8945C48.0448 13.8945 47.8223 14.0229 47.6598 14.2882L44.0057 20.1587L42.2686 17.9166C42.0546 17.6342 41.8664 17.5486 41.6267 17.5486C41.2331 17.5486 40.9336 17.8652 40.9336 18.2589C40.9336 18.4471 41.0106 18.644 41.139 18.8151L43.2869 21.4508C43.5094 21.7504 43.749 21.8616 44.04 21.8616Z" fill="#0085EB"/>
<path d="M23.7297 7C20.9266 7 20.809 21.7866 21.1182 29.8542C21.135 30.2934 21.4389 30.6678 21.8644 30.7781L30.2477 32.9497C30.3759 32.9829 30.5073 32.9906 30.6385 32.972C35.134 32.3349 42.4446 31.5556 37.1533 31.5556C30.4419 31.5556 30.4419 26.7407 30.4419 24.3333V11.8148C30.4419 7 27.3436 7 23.7297 7Z" fill="#80C8FF"/>
<rect x="53" y="4" width="13" height="4" rx="1" fill="#80C8FF"/>
<rect x="14" y="31" width="62" height="4" rx="1" fill="#0085EB"/>
<rect y="34" width="90" height="1" rx="0.5" fill="url(#paint0_linear_2183_157723)"/>
<rect x="13.5" y="7.5" width="14" height="27" rx="2.5" fill="white" stroke="#0593FF"/>
<rect x="17" y="7" width="7" height="2" rx="1" fill="#0593FF"/>
<defs>
<linearGradient id="paint0_linear_2183_157723" x1="1.50622e-08" y1="34.4999" x2="90" y2="34.4999" gradientUnits="userSpaceOnUse">
<stop stop-color="#0085EB" stop-opacity="0"/>
<stop offset="0.156127" stop-color="#0085EB"/>
<stop offset="0.823047" stop-color="#0085EB"/>
<stop offset="1" stop-color="#0085EB" stop-opacity="0"/>
</linearGradient>
</defs>
</svg>
