<svg width="136" height="59" viewBox="0 0 136 59" fill="none" xmlns="http://www.w3.org/2000/svg">
<g id="alert-banner 1" clip-path="url(#clip0_1112_64147)">
<path id="Vector" d="M102.191 23.8212V10.7229C102.191 8.04421 100.019 5.87268 97.3406 5.87268H31.5201C28.8414 5.87268 26.6699 8.04422 26.6699 10.7229V38.5423" stroke="#EB7100" stroke-width="1.5" stroke-miterlimit="10" stroke-linecap="round" stroke-linejoin="round"/>
<path id="Vector_2" d="M27.0605 14.6556H102.191" stroke="#EB7100" stroke-width="1.5" stroke-miterlimit="10" stroke-linecap="round" stroke-linejoin="round"/>
<path id="Vector_3" d="M34.9824 38.6108H12.1279V56.8685H34.9824V38.6108Z" stroke="#FFAA05" stroke-width="1.5" stroke-miterlimit="10" stroke-linecap="round" stroke-linejoin="round"/>
<path id="Vector_4" d="M17.5684 47.7397H29.0555" stroke="#EB7100" stroke-width="1.5" stroke-miterlimit="10" stroke-linecap="round" stroke-linejoin="round"/>
<path id="Vector_5" d="M25.4688 43.6671L29.5413 47.7397L25.4688 51.8122" stroke="#EB7100" stroke-width="1.5" stroke-miterlimit="10" stroke-linecap="round" stroke-linejoin="round"/>
<path id="Vector_6" d="M39.7938 12.4132C40.9419 12.4132 41.8727 11.4824 41.8727 10.3343C41.8727 9.18613 40.9419 8.25537 39.7938 8.25537C38.6456 8.25537 37.7148 9.18613 37.7148 10.3343C37.7148 11.4824 38.6456 12.4132 39.7938 12.4132Z" fill="#FFAA05"/>
<path id="Vector_7" d="M32.1053 12.3251C33.2534 12.3251 34.1842 11.3943 34.1842 10.2461C34.1842 9.098 33.2534 8.16724 32.1053 8.16724C30.9571 8.16724 30.0264 9.098 30.0264 10.2461C30.0264 11.3943 30.9571 12.3251 32.1053 12.3251Z" fill="#EB7100"/>
<path id="Vector_8" d="M-38.5 56.8685H135" stroke="#EB7100" stroke-width="1.5" stroke-miterlimit="10" stroke-linecap="round" stroke-linejoin="round"/>
<path id="Vector_9" d="M48.1373 37.0273H81.9487C84.0443 37.0273 85.7432 38.7262 85.7432 40.8219V40.8219C85.7432 42.9175 84.0443 44.6164 81.9487 44.6164H48.1373C46.0416 44.6164 44.3428 42.9175 44.3428 40.8219V40.8219C44.3428 38.7262 46.0416 37.0273 48.1373 37.0273Z" stroke="#FFAA05" stroke-width="1.5" stroke-miterlimit="10" stroke-linecap="round" stroke-linejoin="round"/>
<path id="Vector_10" d="M48.1373 25.2054H81.9487C84.0443 25.2054 85.7432 26.9043 85.7432 29V29C85.7432 31.0956 84.0443 32.7945 81.9487 32.7945H48.1373C46.0416 32.7945 44.3428 31.0956 44.3428 29V29C44.3428 26.9043 46.0416 25.2054 48.1373 25.2054Z" stroke="#FFAA05" stroke-width="1.5" stroke-miterlimit="10" stroke-linecap="round" stroke-linejoin="round"/>
<path id="Vector_11" d="M80.0066 46.8194L80.2587 32.5612C80.3446 27.7028 84.3075 23.8093 89.1666 23.8093C85.7509 24.3003 84.3348 26.8157 84.0536 28.0121C83.9702 34.2046 83.8534 47.6029 84.0536 51.6562C84.2538 55.7095 84.2302 56.3926 84.2302 56.3926L52.0605 56.3485H70.3076C75.5982 56.3485 79.9131 52.1092 80.0066 46.8194Z" fill="#FFAA05"/>
<path id="Vector_12" fill-rule="evenodd" clip-rule="evenodd" d="M89.9844 15.5359C89.9704 7.59385 96.3973 1.14409 104.34 1.13003C112.282 1.11596 118.732 7.54292 118.746 15.485L118.761 23.8496L114.645 23.805L114.63 15.4923C114.62 9.82316 110.016 5.23553 104.347 5.24557C98.6775 5.25561 94.0899 9.85952 94.1 15.5286L94.1149 23.9842L89.9995 24.0555L89.9844 15.5359Z" fill="#EB7100"/>
<path id="Vector_13" d="M84.1162 28.8976C84.1115 26.2188 86.2792 24.0435 88.9579 24.0387L119.802 23.9841C122.481 23.9794 124.656 26.147 124.661 28.8258L124.711 56.8344H84.1658L84.1162 28.8976Z" fill="#FFD480" stroke="#EB7100" stroke-width="1.5" stroke-miterlimit="10" stroke-linecap="round" stroke-linejoin="round"/>
<path id="Vector_14" fill-rule="evenodd" clip-rule="evenodd" d="M106.61 43.5684C107.634 42.8695 108.305 41.6922 108.303 40.3589C108.299 38.2189 106.561 36.4872 104.421 36.491C102.281 36.4948 100.55 38.2327 100.553 40.3726C100.556 41.703 101.228 42.8757 102.251 43.5715L102.261 48.8574L106.619 48.8496L106.61 43.5684Z" fill="#EB7100"/>
</g>
<defs>
<clipPath id="clip0_1112_64147">
<rect width="136" height="58" fill="white" transform="translate(0 0.5)"/>
</clipPath>
</defs>
</svg>
