<svg width="21" height="21" viewBox="0 0 21 21" fill="none" xmlns="http://www.w3.org/2000/svg">
<g id="error_outline">
<path id="Vector" d="M10.4993 6.33268C10.9577 6.33268 11.3327 6.70768 11.3327 7.16602V10.4993C11.3327 10.9577 10.9577 11.3327 10.4993 11.3327C10.041 11.3327 9.66602 10.9577 9.66602 10.4993V7.16602C9.66602 6.70768 10.041 6.33268 10.4993 6.33268ZM10.491 2.16602C5.89102 2.16602 2.16602 5.89935 2.16602 10.4993C2.16602 15.0993 5.89102 18.8327 10.491 18.8327C15.0993 18.8327 18.8327 15.0993 18.8327 10.4993C18.8327 5.89935 15.0993 2.16602 10.491 2.16602ZM10.4993 17.166C6.81602 17.166 3.83268 14.1827 3.83268 10.4993C3.83268 6.81602 6.81602 3.83268 10.4993 3.83268C14.1827 3.83268 17.166 6.81602 17.166 10.4993C17.166 14.1827 14.1827 17.166 10.4993 17.166ZM11.3327 14.666H9.66602V12.9993H11.3327V14.666Z" fill="#F59E0B"/>
</g>
</svg>
