<svg width="400" height="100" viewBox="0 0 400 100" fill="none" xmlns="http://www.w3.org/2000/svg">
<g clip-path="url(#clip0_953_113143)">
<ellipse cx="200" rx="249" ry="98" fill="url(#paint0_radial_953_113143)"/>
<path d="M312.154 -75.1539H337.077M312.154 -75.1539V-50.2308M312.154 -75.1539H287.231M337.077 -75.1539V-50.2308M337.077 -75.1539H362V-50.2308M337.077 -50.2308H312.154M337.077 -50.2308H362M337.077 -50.2308V-25.3077M312.154 -50.2308V-25.3077M312.154 -50.2308H287.231M362 -50.2308V-25.3077M337.077 -25.3077H312.154M337.077 -25.3077V-0.384637M337.077 -25.3077H362M312.154 -25.3077V-0.384637M312.154 -25.3077H287.231M337.077 -0.384637H312.154M337.077 -0.384637V24.5384M337.077 -0.384637H362M312.154 -0.384637V24.5384M312.154 -0.384637H287.231M337.077 24.5384H312.154M337.077 24.5384V49.4615M337.077 24.5384H362M312.154 24.5384V49.4615M312.154 24.5384H287.231M337.077 49.4615H312.154M337.077 49.4615V74.3846M337.077 49.4615H362M312.154 49.4615V74.3846M312.154 49.4615H287.231M337.077 74.3846H312.154M337.077 74.3846V99.3077M337.077 74.3846H362M312.154 74.3846V99.3077M312.154 74.3846H287.231M337.077 99.3077H312.154M337.077 99.3077V124.231M337.077 99.3077H362M312.154 99.3077V124.231M312.154 99.3077H287.231M337.077 124.231H312.154M337.077 124.231V149.154M337.077 124.231H362M312.154 124.231V149.154M312.154 124.231H287.231M337.077 149.154H312.154M337.077 149.154H362V124.231M312.154 149.154H287.231M362 -25.3077V-0.384637M362 -0.384637V24.5384M362 24.5384V49.4615M362 49.4615V74.3846M362 74.3846V99.3077M362 99.3077V124.231M62.9231 -75.1539H38V-50.2308M62.9231 -75.1539V-50.2308M62.9231 -75.1539H87.8462M62.9231 -50.2308H38M62.9231 -50.2308H87.8462M62.9231 -50.2308V-25.3077M38 -50.2308V-25.3077M87.8462 -75.1539V-50.2308M87.8462 -75.1539H112.769M87.8462 -50.2308H112.769M87.8462 -50.2308V-25.3077M112.769 -75.1539V-50.2308M112.769 -75.1539H137.692M112.769 -50.2308H137.692M112.769 -50.2308V-25.3077M137.692 -75.1539V-50.2308M137.692 -75.1539H162.615M137.692 -50.2308H162.615M137.692 -50.2308V-25.3077M162.615 -75.1539V-50.2308M162.615 -75.1539H187.538M162.615 -50.2308H187.538M162.615 -50.2308V-25.3077M187.538 -75.1539V-50.2308M187.538 -75.1539H212.462M187.538 -50.2308H212.462M187.538 -50.2308V-25.3077M212.462 -75.1539V-50.2308M212.462 -75.1539H237.385M212.462 -50.2308H237.385M212.462 -50.2308V-25.3077M237.385 -75.1539V-50.2308M237.385 -75.1539H262.308M237.385 -50.2308H262.308M237.385 -50.2308V-25.3077M262.308 -75.1539V-50.2308M262.308 -75.1539H287.231M262.308 -50.2308H287.231M262.308 -50.2308V-25.3077M287.231 -75.1539V-50.2308M287.231 -50.2308V-25.3077M62.9231 -25.3077H38M62.9231 -25.3077V-0.384637M62.9231 -25.3077H87.8462M38 -25.3077V-0.384637M62.9231 -0.384637H38M62.9231 -0.384637V24.5384M62.9231 -0.384637H87.8462M38 -0.384637V24.5384M62.9231 24.5384H38M62.9231 24.5384V49.4615M62.9231 24.5384H87.8462M38 24.5384V49.4615M62.9231 49.4615H38M62.9231 49.4615V74.3846M62.9231 49.4615H87.8462M38 49.4615V74.3846M62.9231 74.3846H38M62.9231 74.3846V99.3077M62.9231 74.3846H87.8462M38 74.3846V99.3077M62.9231 99.3077H38M62.9231 99.3077V124.231M62.9231 99.3077H87.8462M38 99.3077V124.231M62.9231 124.231H38M62.9231 124.231V149.154M62.9231 124.231H87.8462M38 124.231V149.154H62.9231M62.9231 149.154H87.8462M87.8462 -25.3077V-0.384637M87.8462 -25.3077H112.769M87.8462 -0.384637V24.5384M87.8462 -0.384637H112.769M87.8462 24.5384V49.4615M87.8462 24.5384H112.769M87.8462 49.4615V74.3846M87.8462 49.4615H112.769M87.8462 74.3846V99.3077M87.8462 74.3846H112.769M87.8462 99.3077V124.231M87.8462 99.3077H112.769M87.8462 124.231V149.154M87.8462 124.231H112.769M87.8462 149.154H112.769M112.769 -25.3077V-0.384637M112.769 -25.3077H137.692M112.769 -0.384637V24.5384M112.769 -0.384637H137.692M112.769 24.5384V49.4615M112.769 24.5384H137.692M112.769 49.4615V74.3846M112.769 49.4615H137.692M112.769 74.3846V99.3077M112.769 74.3846H137.692M112.769 99.3077V124.231M112.769 99.3077H137.692M112.769 124.231V149.154M112.769 124.231H137.692M112.769 149.154H137.692M137.692 -25.3077V-0.384637M137.692 -25.3077H162.615M137.692 -0.384637V24.5384M137.692 -0.384637H162.615M137.692 24.5384V49.4615M137.692 24.5384H162.615M137.692 49.4615V74.3846M137.692 49.4615H162.615M137.692 74.3846V99.3077M137.692 74.3846H162.615M137.692 99.3077V124.231M137.692 99.3077H162.615M137.692 124.231V149.154M137.692 124.231H162.615M137.692 149.154H162.615M162.615 -25.3077V-0.384637M162.615 -25.3077H187.538M162.615 -0.384637V24.5384M162.615 -0.384637H187.538M162.615 24.5384V49.4615M162.615 24.5384H187.538M162.615 49.4615V74.3846M162.615 49.4615H187.538M162.615 74.3846V99.3077M162.615 74.3846H187.538M162.615 99.3077V124.231M162.615 99.3077H187.538M162.615 124.231V149.154M162.615 124.231H187.538M162.615 149.154H187.538M187.538 -25.3077V-0.384637M187.538 -25.3077H212.462M187.538 -0.384637V24.5384M187.538 -0.384637H212.462M187.538 24.5384V49.4615M187.538 24.5384H212.462M187.538 49.4615V74.3846M187.538 49.4615H212.462M187.538 74.3846V99.3077M187.538 74.3846H212.462M187.538 99.3077V124.231M187.538 99.3077H212.462M187.538 124.231V149.154M187.538 124.231H212.462M187.538 149.154H212.462M212.462 -25.3077V-0.384637M212.462 -25.3077H237.385M212.462 -0.384637V24.5384M212.462 -0.384637H237.385M212.462 24.5384V49.4615M212.462 24.5384H237.385M212.462 49.4615V74.3846M212.462 49.4615H237.385M212.462 74.3846V99.3077M212.462 74.3846H237.385M212.462 99.3077V124.231M212.462 99.3077H237.385M212.462 124.231V149.154M212.462 124.231H237.385M212.462 149.154H237.385M237.385 -25.3077V-0.384637M237.385 -25.3077H262.308M237.385 -0.384637V24.5384M237.385 -0.384637H262.308M237.385 24.5384V49.4615M237.385 24.5384H262.308M237.385 49.4615V74.3846M237.385 49.4615H262.308M237.385 74.3846V99.3077M237.385 74.3846H262.308M237.385 99.3077V124.231M237.385 99.3077H262.308M237.385 124.231V149.154M237.385 124.231H262.308M237.385 149.154H262.308M262.308 -25.3077V-0.384637M262.308 -25.3077H287.231M262.308 -0.384637V24.5384M262.308 -0.384637H287.231M262.308 24.5384V49.4615M262.308 24.5384H287.231M262.308 49.4615V74.3846M262.308 49.4615H287.231M262.308 74.3846V99.3077M262.308 74.3846H287.231M262.308 99.3077V124.231M262.308 99.3077H287.231M262.308 124.231V149.154M262.308 124.231H287.231M262.308 149.154H287.231M287.231 -25.3077V-0.384637M287.231 -0.384637V24.5384M287.231 24.5384V49.4615M287.231 49.4615V74.3846M287.231 74.3846V99.3077M287.231 99.3077V124.231M287.231 124.231V149.154" stroke="url(#paint1_radial_953_113143)" stroke-opacity="0.4" stroke-width="0.692308"/>
<rect opacity="0.3" x="53" width="295" height="2" fill="url(#paint2_linear_953_113143)"/>
</g>
<defs>
<radialGradient id="paint0_radial_953_113143" cx="0" cy="0" r="1" gradientUnits="userSpaceOnUse" gradientTransform="translate(200) rotate(90) scale(98 249)">
<stop stop-color="#DFD4F2"/>
<stop offset="1" stop-color="#DFD4F2" stop-opacity="0"/>
</radialGradient>
<radialGradient id="paint1_radial_953_113143" cx="0" cy="0" r="1" gradientUnits="userSpaceOnUse" gradientTransform="translate(200 24.5) rotate(90) scale(124.654 180.056)">
<stop stop-color="#C6A7DE"/>
<stop offset="1" stop-color="white" stop-opacity="0"/>
</radialGradient>
<linearGradient id="paint2_linear_953_113143" x1="53" y1="0" x2="348" y2="6.24973e-09" gradientUnits="userSpaceOnUse">
<stop stop-color="#4A00CB" stop-opacity="0"/>
<stop offset="0.516396" stop-color="#4A00CB"/>
<stop offset="1" stop-color="#4A00CB" stop-opacity="0"/>
</linearGradient>
<clipPath id="clip0_953_113143">
<rect width="400" height="100" fill="white"/>
</clipPath>
</defs>
</svg>
