<svg width="20" height="20" viewBox="0 0 20 20" fill="none" xmlns="http://www.w3.org/2000/svg">
  <g clip-path="url(#clip0_3846_8379)">
    <path d="M18.16 15.5863C17.8576 16.2851 17.4996 16.9283 17.0848 17.5196C16.5194 18.3257 16.0564 18.8837 15.6996 19.1936C15.1466 19.7022 14.554 19.9627 13.9194 19.9775C13.4639 19.9775 12.9145 19.8479 12.2751 19.585C11.6335 19.3232 11.0439 19.1936 10.5047 19.1936C9.93932 19.1936 9.33292 19.3232 8.6843 19.585C8.03469 19.8479 7.51138 19.985 7.11127 19.9985C6.50277 20.0245 5.89624 19.7566 5.29083 19.1936C4.90442 18.8566 4.4211 18.2788 3.84211 17.4603C3.2209 16.5863 2.71017 15.5727 2.31006 14.4172C1.88156 13.1691 1.66675 11.9605 1.66675 10.7904C1.66675 9.45008 1.95637 8.29407 2.53647 7.32533C2.99238 6.54721 3.59891 5.9334 4.35802 5.4828C5.11713 5.03219 5.93735 4.80257 6.82066 4.78788C7.30398 4.78788 7.93778 4.93738 8.72541 5.2312C9.51082 5.52601 10.0151 5.67551 10.2362 5.67551C10.4015 5.67551 10.9618 5.5007 11.9115 5.15219C12.8096 4.82899 13.5676 4.69517 14.1886 4.74788C15.8712 4.88368 17.1354 5.54699 17.9761 6.74202C16.4712 7.65384 15.7268 8.93096 15.7416 10.5693C15.7552 11.8454 16.2181 12.9074 17.128 13.7506C17.5403 14.1419 18.0008 14.4444 18.5131 14.6592C18.402 14.9814 18.2847 15.29 18.16 15.5863V15.5863ZM14.3009 0.400358C14.3009 1.40059 13.9355 2.3345 13.2071 3.19891C12.3281 4.22654 11.265 4.82035 10.112 4.72665C10.0973 4.60665 10.0888 4.48036 10.0888 4.34765C10.0888 3.38743 10.5068 2.3598 11.2492 1.51958C11.6198 1.09416 12.0911 0.740434 12.6627 0.458257C13.233 0.18029 13.7725 0.0265683 14.2799 0.000244141C14.2947 0.133959 14.3009 0.267682 14.3009 0.400345V0.400358Z" fill="black"/>
  </g>
  <defs>
    <clipPath id="clip0_3846_8379">
      <rect width="20" height="20" fill="white"/>
    </clipPath>
  </defs>
</svg>
