<svg width="40" height="40" viewBox="0 0 40 40" fill="none" xmlns="http://www.w3.org/2000/svg">
 <path fill-rule="evenodd" clip-rule="evenodd" d="M19.9998 0C31.0458 0 40 8.95418 40 19.9998C40 31.0454 31.0458 40 19.9998 40C8.95418 40 0 31.0454 0 19.9998C0 8.95418 8.95418 0 19.9998 0" fill="#FFA800"/>
 <path fill-rule="evenodd" clip-rule="evenodd" d="M26.3094 20.3673C25.6465 19.8678 24.7016 19.668 24.7016 19.668C24.7016 19.668 25.5011 19.2045 25.828 18.7414C26.1548 18.2783 26.3182 17.5607 26.3454 17.1879C26.3726 16.8159 26.4365 15.2536 25.2194 14.3545C24.2779 13.6591 23.199 13.3828 21.7499 13.2932V10.1406H19.8064V13.2557H18.326V10.1406H16.3825V13.2557H12.5586V15.2735L13.6827 15.2739C13.9893 15.2739 14.5339 15.3079 14.7654 15.567C14.997 15.8261 15.0379 15.962 15.0379 16.4661V24.5088C15.0379 24.6994 15.0016 24.9356 14.8382 25.0898C14.6747 25.2445 14.5113 25.2804 14.1209 25.2804H12.9582L12.5586 27.6151H16.3825V30.7214H18.326V27.6151H19.806V30.7214H21.7499V27.5638C22.2525 27.5347 22.7209 27.4965 22.9942 27.4605C23.5484 27.3881 24.8015 27.2431 25.9734 26.4252C27.1449 25.6077 27.4083 24.327 27.4354 23.0372C27.463 21.7478 26.9716 20.8667 26.3094 20.3673V20.3673ZM18.3254 15.4534C18.3254 15.4534 18.9427 15.399 19.5513 15.4078C20.1602 15.417 20.6956 15.4354 21.4952 15.6807C22.2947 15.926 22.7662 16.5254 22.7846 17.2338C22.803 17.9423 22.4937 18.4142 21.9491 18.7142C21.4041 19.0139 20.6509 19.1777 19.942 19.2045C19.234 19.2317 18.3254 19.2045 18.3254 19.2045V15.4534ZM22.6755 24.745C22.2308 24.99 21.3402 25.2081 20.4779 25.2717C19.6148 25.3348 18.3254 25.308 18.3254 25.308V21.1393C18.3254 21.1393 19.5605 21.0757 20.5234 21.1393C21.486 21.2028 22.2943 21.4478 22.6572 21.6296C23.0208 21.811 23.6565 22.2109 23.6565 23.1651C23.6565 24.1181 23.1203 24.4997 22.6755 24.745V24.745Z" fill="white"/>
</svg>
