<svg width="76" height="76" viewBox="0 0 76 76" fill="none" xmlns="http://www.w3.org/2000/svg">
<g filter="url(#filter0_d_1053_117225)">
<circle cx="38" cy="37" r="36" fill="#988430"/>
<circle cx="37.9992" cy="36.9999" r="34.8468" fill="#7A6A2A"/>
<circle cx="38.0013" cy="37.0002" r="34.1126" fill="#BA9F33"/>
<path fill-rule="evenodd" clip-rule="evenodd" d="M17.7339 33.1554C17.53 32.9692 17.3146 32.7825 17.1165 32.5963C16.9183 32.4101 16.7148 32.2234 16.5109 32.0372L15.9049 31.4612C15.8059 31.3621 15.701 31.275 15.602 31.1755C15.5029 31.0883 15.3865 30.9893 15.2875 30.9017C14.4834 30.1387 13.6747 29.3757 12.8817 28.6123C13.7031 29.3638 14.5072 30.1099 15.3285 30.8725L15.6139 31.1582C15.7129 31.2569 15.8178 31.3445 15.9168 31.4435L16.5224 32.0026C16.7263 32.1889 16.9245 32.3755 17.1284 32.5786C17.3323 32.7818 17.5304 32.9688 17.7343 33.1546L17.7339 33.1554ZM7.0625 33.0403C7.0625 33.0403 9.98666 33.3429 11.414 33.5468C12.7361 33.7334 16.8722 34.3682 16.8722 34.3682L7.0625 33.0403ZM7.06288 33.0402C7.88426 33.1101 8.70564 33.1973 9.52701 33.2848C9.94634 33.3255 10.3484 33.372 10.7504 33.4127L11.3675 33.483C11.5714 33.5118 11.7696 33.541 11.9735 33.5701L14.4203 33.9603L15.6434 34.1642C16.0454 34.2341 16.4475 34.3101 16.8668 34.38C16.4647 34.3393 16.0454 34.2809 15.6434 34.2226L14.4203 34.0478L11.9735 33.6869C11.7696 33.6577 11.5714 33.6166 11.3675 33.5878L10.7501 33.5168C10.348 33.4761 9.92868 33.4177 9.52663 33.3708C8.70525 33.2722 7.88388 33.1669 7.0625 33.0391L7.06288 33.0402ZM16.5812 35.13C16.5812 35.13 13.4589 35.9226 12.4044 36.2256C11.3676 36.5109 8.22768 37.4663 8.22768 37.4663L16.5808 35.1304L16.5812 35.13Z" fill="#CFB66C"/>
<path fill-rule="evenodd" clip-rule="evenodd" d="M16.5856 35.13C15.8925 35.3339 15.2032 35.5321 14.5001 35.7187L12.4146 36.2778C11.7215 36.4817 11.0322 36.6798 10.341 36.8837L9.30418 37.169C8.9605 37.2681 8.61106 37.3553 8.25586 37.4547C8.59916 37.3395 8.94898 37.2217 9.29266 37.1226L10.3295 36.7908C11.0226 36.575 11.7119 36.3711 12.4031 36.1557C13.1077 35.9809 13.8012 35.7943 14.5058 35.6254C15.1755 35.4564 15.8806 35.2878 16.5856 35.1304V35.13ZM8.67104 39.3884C9.01433 39.2601 12.9757 37.4139 13.8961 36.9826C14.3569 36.7668 15.6963 36.2914 15.6963 36.2914L8.67104 39.3884Z" fill="#CFB66C"/>
<path fill-rule="evenodd" clip-rule="evenodd" d="M8.67031 39.3884C8.9729 39.2732 9.25859 39.1323 9.54967 38.9983L10.4117 38.5962L12.1421 37.7633C12.7181 37.4895 13.2779 37.1873 13.872 36.93C14.1749 36.8022 14.4779 36.6973 14.7805 36.5983L15.2413 36.4527C15.3984 36.412 15.5443 36.3652 15.7021 36.3245C15.1261 36.5983 14.5198 36.8313 13.943 37.099C13.367 37.3847 12.778 37.6178 12.1835 37.8739L10.4244 38.6484C9.83383 38.8877 9.25783 39.1438 8.66992 39.3884H8.67031ZM9.05162 41.0014C9.05162 41.0014 12.6397 38.8986 13.8747 38.2228C14.5213 37.8618 16.6126 36.8246 16.6126 36.8246L9.05162 41.0014Z" fill="#CFB66C"/>
<path fill-rule="evenodd" clip-rule="evenodd" d="M9.05859 41.002C9.66416 40.6291 10.2816 40.2505 10.8991 39.8661L11.8207 39.3066C12.1352 39.1204 12.4382 38.9457 12.7588 38.7594C13.0733 38.5728 13.3763 38.3866 13.6965 38.2119C13.849 38.1177 14.0087 38.0359 14.1742 37.9673L14.6635 37.7226C15.3101 37.4082 15.9568 37.0875 16.6384 36.8137C16.0209 37.2042 15.3858 37.5364 14.751 37.8797C14.4365 38.0544 14.1159 38.2119 13.8014 38.3866C13.4869 38.5613 13.1839 38.7479 12.8633 38.9169C12.5488 39.1031 12.2458 39.2778 11.9255 39.4468L10.9759 39.9652L9.05936 41.002H9.05859ZM16.5881 37.2854C16.5881 37.2854 14.3571 38.998 13.6348 39.5456C12.9125 40.0932 10.7863 41.6311 10.7863 41.6311L16.5881 37.2854Z" fill="#CFB66C"/>
<path fill-rule="evenodd" clip-rule="evenodd" d="M29.3916 51.0972L28.25 48.936L28.9139 46.2331L33.6498 44.4041L31.6342 40.2684L32.6303 36.0916L34.5004 32.3515L40.2792 31.4429L44.5255 27.3944L53.6946 28.0875L55.4944 37.8914L52.0284 50.2351L50.0539 56.6256L42.0498 56.9286L38.3335 54.3539L33.982 52.536L29.3916 51.0972Z" fill="#E2CC85"/>
<path fill-rule="evenodd" clip-rule="evenodd" d="M43.43 51.0271C43.43 51.0271 42.3229 51.534 40.4348 51.4172C39.8884 50.6834 36.0614 50.3397 36.0614 50.3397C36.0614 50.3397 35.5837 50.1942 34.7389 50.5436C33.8888 50.8892 33.0847 50.8466 32.3332 51.0329C31.5817 51.2191 30.8356 50.2407 30.2596 50.0368C29.6836 49.8213 28.9198 49.3029 28.9198 49.3029L27.307 49.1455L24.0683 47.7765L18.9231 42.6505L17.525 44.8393L17.0938 47.548L18.6493 50.7579L22.8376 54.5733L31.0045 56.6469L35.8452 55.2208L41.9094 52.6576L43.43 51.0267V51.0271Z" fill="#F1D789"/>
<path fill-rule="evenodd" clip-rule="evenodd" d="M14.4116 32.9108L15.4484 29.7712L16.6837 27.7437L20.6619 27.4115L19.4677 30.8951L16.1419 36.8137L17.5223 42.0972L15.0759 43.3202L14.324 42.1671L13.7184 39.5225L13.6777 36.5515L14.4116 32.9108Z" fill="#F4ECB4"/>
<path fill-rule="evenodd" clip-rule="evenodd" d="M18.8773 50.8116L18.1143 49.7456C18.1143 49.7456 17.9104 49.2387 18.0272 48.796C18.1424 48.3475 18.1258 48.3183 18.0679 48.1493C18.0099 47.9804 17.5203 47.3978 17.5495 46.8967C17.5783 46.3898 17.5088 46.2209 17.8812 45.8192C18.2714 45.4291 18.155 44.7532 18.155 44.7532L18.6619 45.0677L18.7771 44.893C18.7771 44.893 18.9634 45.0386 18.9634 45.2659C19.0041 44.9514 18.8351 43.4949 19.2195 43.1631C19.6039 42.8313 20.2855 44.7183 20.2855 44.7183L19.8661 41.9804L18.7882 39.173L16.8717 36.6098L16.7565 33.7843V33.5397C16.7565 33.5397 15.8768 34.8914 15.6322 35.9589C15.4574 36.6927 15.8768 37.584 15.7896 38.6384C15.7193 39.6871 15.6322 39.6053 15.8883 40.0208C16.1444 40.4363 16.768 41.2907 16.5234 41.9082C16.308 42.4385 15.5738 42.0656 15.5738 42.0656C15.5738 42.0656 15.4282 42.4965 15.2301 42.6539C15.1602 42.3978 15.0846 42.2346 14.9448 42.0779C14.9329 42.177 14.9041 42.311 14.9041 42.311C14.9041 42.311 14.7758 41.909 14.6476 41.4021C14.4732 40.7266 14.2866 39.8354 14.1177 39.3577C14.0478 39.6314 13.873 40.4643 13.873 40.4643L13.9721 41.7461L14.4498 43.5052L14.9106 44.6572L15.3591 46.0669L15.7489 47.0138L16.0634 47.7362L16.3372 49.3616L17.6593 50.7594L18.3643 51.0743L18.8766 50.812L18.8773 50.8116Z" fill="#F3E19D"/>
<path fill-rule="evenodd" clip-rule="evenodd" d="M15.1048 30.3475C15.1048 30.3475 14.1552 31.9603 13.8818 33.5861C13.6084 35.212 13.3634 36.93 13.5362 39.1434C13.7109 41.3748 14.0431 42.7434 14.3111 43.7222C14.7719 45.3477 15.9654 47.6079 15.9654 47.6079L16.0061 47.5203C15.8055 47.1401 15.6454 46.7398 15.5284 46.3261C15.3709 45.7086 15.3126 44.9748 15.167 44.6427C15.0388 44.3109 14.8234 44.0252 14.7185 43.6174C14.6194 43.2272 14.6033 42.6098 14.2992 42.1497C14.1709 41.9631 14.0135 41.4739 13.967 40.9847C13.9087 40.2505 13.9962 39.4291 13.9263 38.7536C13.7981 37.6293 13.7109 36.8663 13.8273 36.2776C13.9436 35.6889 14.5499 34.0178 14.9228 32.6895C15.1674 31.8389 15.0215 31.1224 15.47 30.3824C15.9185 29.6486 16.1927 29.0019 16.2914 28.5534C16.4066 28.1456 15.1033 30.3475 15.1033 30.3475H15.1048Z" fill="#F2E8B0"/>
<path fill-rule="evenodd" clip-rule="evenodd" d="M19.6114 29.7009C19.6114 29.7009 19.1221 29.8468 18.8891 30.103C18.656 30.3476 18.5569 30.5515 18.2424 30.9651C17.9279 31.3786 17.9102 31.7165 17.6537 32.2349C17.3976 32.7418 16.8323 33.5048 16.7625 33.7786C16.6926 34.0524 16.5762 35.3338 16.4307 35.9398C16.3024 36.5457 16.5762 37.2915 16.5762 37.2915L16.908 37.2212C16.908 37.2212 16.908 37.6524 17.2402 37.9439C17.5719 38.2292 17.6303 36.9766 17.6303 36.9766L18.871 32.7883L20.7407 31.5184L20.9446 30.4931L19.6106 29.7009H19.6114Z" fill="#F5EEC0"/>
<path fill-rule="evenodd" clip-rule="evenodd" d="M20.5189 31.6003C20.5189 31.6003 19.6392 31.6583 19.2083 31.9731C19.0336 32.101 18.9637 32.2058 18.7775 32.3633C18.4338 32.6486 18.084 32.9109 17.9154 33.2849C17.7288 33.6574 17.5249 34.2226 17.3851 35.2886C17.3267 35.7371 17.3267 36.1507 17.286 36.512C17.2277 37.0012 17.1405 37.3914 17.187 37.664C17.2453 38.2231 17.8221 38.5146 17.8782 39.1493L19.0724 38.5438L20.1968 34.1105L22.5852 32.6129L21.2336 31.0984L20.5174 31.5976L20.5189 31.6003Z" fill="#E6DB9D"/>
<path fill-rule="evenodd" clip-rule="evenodd" d="M14.2211 61.4528C14.2261 61.409 14.2311 61.3652 14.2361 61.3203C14.4104 59.8227 14.44 58.6876 14.5678 57.9768C14.7541 56.9692 14.8823 56.5944 14.8532 56.2173C14.8124 55.6118 14.766 55.169 14.8244 54.7028C14.9115 54.0854 15.5175 53.3515 15.5002 52.8447C15.4883 52.4426 15.2844 52.1807 15.1097 51.9361C14.9349 51.6915 14.7952 51.4876 14.7952 51.4876C14.7952 51.4876 15.9894 50.6662 15.9779 47.3573C16.0023 47.3642 16.0257 47.374 16.0478 47.3865L16.6361 49.058L17.0381 49.5473L18.5818 52.4249L20.5682 54.3534L23.5039 56.3279L25.3448 58.3313L25.531 63.6731L23.1253 66.7954L22.7313 67.5089C19.6012 65.9375 16.7309 63.8949 14.2207 61.4524L14.2211 61.4528Z" fill="#E5CB7A"/>
<path fill-rule="evenodd" clip-rule="evenodd" d="M21.5664 66.5632C21.5664 66.5632 21.6071 65.8993 22.1547 65.4681C22.2422 65.6136 22.3002 65.7538 22.283 65.8582C22.382 65.6839 23.0751 64.5653 24.6422 64.2738C26.2094 63.9885 26.588 62.8469 26.588 62.8469L29.9138 59.8237L33.7177 56.3227L38.343 54.6973L40.5045 54.167C40.5045 54.167 40.5452 54.3244 40.4638 54.6738C40.8655 54.645 41.7567 54.4411 42.683 54.1147C43.0558 53.9692 43.4056 53.9108 43.5919 54.1032C43.8657 54.3593 43.9064 54.9653 43.9237 55.3263C44.3722 55.2272 44.8906 54.7963 45.3061 54.837C45.9704 54.9069 46.5587 55.6876 47.2345 55.6876C48.1258 55.6876 48.5274 55.14 49.151 54.7088C49.5239 54.4527 50.0596 54.1328 50.3626 53.9166C51.0849 53.3863 58.7276 51.0504 58.7276 51.0504L61.4072 51.2251L61.8384 54.1028L61.608 61.6254C61.5796 61.6527 61.5512 61.6811 61.5224 61.7083L49.3388 68.0716L32.4505 70.6605C28.6675 70.0424 25.0168 68.7867 21.654 66.9469L21.5676 66.5629L21.5664 66.5632Z" fill="#D8C173"/>
<path fill-rule="evenodd" clip-rule="evenodd" d="M15.2461 62.4095C15.4861 61.9076 15.7019 61.4879 15.7399 61.3378C15.7699 61.6404 15.8248 62.3043 15.9354 63.0101C15.7032 62.8127 15.4734 62.6124 15.2461 62.4091V62.4095Z" fill="#F1D789"/>
<path fill-rule="evenodd" clip-rule="evenodd" d="M27.5769 69.4891L29.7611 68.8816L29.9473 68.94C29.9473 68.94 30.0464 68.9984 30.0464 69.1961C30.3202 69.0391 30.5533 69.0679 30.7223 68.9634C30.8094 69.1497 30.8966 69.7671 31.2814 69.8428C31.683 69.9303 32.1143 69.6681 32.5512 69.3363C32.9821 68.9926 33.4728 68.5614 33.8442 68.3867C33.9804 68.6372 34.1011 68.8958 34.2055 69.1612C34.6947 68.771 35.5453 67.1867 36.7568 67.2155C37.107 66.3879 37.692 65.6812 38.4395 65.1826C39.5639 64.4196 40.2685 64.3612 41.1482 64.4311C41.4977 63.9772 41.9282 63.5921 42.4181 63.2952C42.5637 63.3536 42.9657 63.5982 43.4668 63.3651C43.9737 63.1324 44.5443 62.2292 45.2958 62.1129C45.7008 62.0571 46.1125 62.1436 46.4609 62.3575C46.4609 62.3575 48.6497 60.1844 50.1599 59.4621C50.1016 59.2874 49.9852 58.6292 51.7558 57.1727C51.8549 57.2603 51.785 57.5049 51.8549 57.5183C51.8837 57.5183 52.3157 57.3321 52.8625 56.9124C53.5384 56.4059 54.3478 55.8756 54.8371 55.73C55.7587 55.4562 56.7363 56.0153 56.7363 56.0153C56.8195 55.957 56.9121 55.9136 57.0101 55.8871C57.2428 55.8464 57.4118 55.8172 57.54 55.7719C57.5285 56.0749 57.6975 56.5933 57.54 57.0418C57.7224 57.1443 57.9156 57.2264 58.116 57.2864C58.0174 57.5018 57.8015 58.0494 57.4406 58.3117C57.7432 58.4572 57.7839 58.6262 58.2151 58.7725C58.0404 59.0171 57.7543 59.4368 57.6268 59.6941C57.4986 59.9678 57.0382 61.1037 56.8342 61.5346C56.6188 61.9658 56.3278 62.758 56.1876 62.917C56.0474 63.0759 55.5409 63.7499 55.1508 64.0816C55.4964 63.9534 56.9103 63.5225 57.5101 63.3593C57.3315 63.6212 56.4264 64.9641 55.5563 66.2555C47.1281 71.3071 36.9336 72.4873 27.5742 69.4949L27.5769 69.4891Z" fill="#E0CD81"/>
<path fill-rule="evenodd" clip-rule="evenodd" d="M20.6633 31.4427C20.6633 31.4427 20.1568 31.4427 20.0577 31.5126C19.9587 31.5825 20.5646 31.7284 20.7509 31.7983C20.9371 31.8682 21.3392 32.1884 21.444 32.4449C21.5431 32.6895 25.0847 34.1165 25.0847 34.1165L27.5895 33.9882L28.4531 32.7951L26.8104 31.3563L27.9624 27.9602L26.4364 28.2048L22.7665 30.3936L20.9256 31.0986L20.6633 31.4427Z" fill="#DFC57C"/>
<path fill-rule="evenodd" clip-rule="evenodd" d="M26.162 32.5669C26.2357 32.6862 26.3674 32.7572 26.5076 32.7532C27.026 32.7532 27.5033 32.8814 27.7014 33.1433C28.0336 33.563 28.954 34.9028 28.954 34.9028L31.1559 35.695L31.298 33.1022L28.8922 31.4307L26.1543 32.4383V32.5665H26.1604L26.162 32.5669Z" fill="#E5CC7C"/>
<path fill-rule="evenodd" clip-rule="evenodd" d="M25.7318 33.5284C25.7318 33.5284 26.1335 33.5576 26.6404 33.371C27.1472 33.1843 27.9801 32.7827 28.3415 32.9401C28.848 33.1555 28.7431 33.8314 29.2911 34.4377C29.6229 34.8106 30.2288 34.799 30.5725 35.2011C30.9162 35.6031 32.0985 35.4165 32.0985 35.4165L32.547 37.8357L30.7472 40.1428L30.1586 43.0086H27.7248L25.5014 42.1265L24.4062 39.4769L24.9538 36.7974L25.7318 33.5284Z" fill="#D2C281"/>
<path fill-rule="evenodd" clip-rule="evenodd" d="M30.4368 33.6448C30.4972 33.6634 30.5599 33.6732 30.623 33.6739C30.5531 33.7323 30.4072 33.8602 30.4656 34.1923C30.524 34.5245 30.7102 34.9438 30.5531 35.2C30.6785 35.3371 30.772 35.5002 30.8269 35.6777C30.926 35.9634 30.9552 36.2252 31.6015 36.2663C31.5082 36.3237 31.4222 36.3922 31.3453 36.4702C31.3453 36.4702 31.7938 36.8604 32.0212 37.2213C32.2539 37.2114 32.8714 37.0194 32.8714 37.0194L32.9996 37.1069L33.2734 36.9917C33.2734 36.9917 33.0173 36.8926 33.2035 36.2694C33.3782 35.7218 33.5357 35.751 33.5491 35.7103C33.5626 35.6696 33.6774 35.0928 33.6774 34.8597C33.7645 34.5571 33.8344 33.6367 33.8344 33.6367L33.6482 31.6038L32.5999 30.9687L31.7474 30.1458L30.9433 31.6602L30.4138 32.1882L30.373 33.4988L30.4368 33.6448Z" fill="#E2C270"/>
<path fill-rule="evenodd" clip-rule="evenodd" d="M32.9648 31.9439C32.9648 31.9439 33.1511 32.4738 33.2214 32.8816C33.2461 32.8023 33.2598 32.72 33.2621 32.637C33.2621 32.637 33.4076 33.4411 33.4364 33.7732C33.4948 33.7613 33.5516 33.7441 33.5647 33.802C33.5777 33.86 33.7106 34.5071 33.6799 34.868C33.9224 34.4678 34.2581 34.1322 34.6583 33.8896C34.8914 33.7437 35.1652 33.5866 35.4509 33.5747C35.8994 33.5632 36.2254 33.8604 36.7615 33.8604C38.0544 33.8604 39.2256 32.9108 40.0877 32.6197C40.7224 32.4039 41.27 32.2468 41.6544 31.897C41.841 31.74 42.1732 31.3905 42.4758 30.8717C42.8778 30.1805 43.2971 29.5788 43.7168 29.5032C43.5269 29.538 43.3338 29.5517 43.1408 29.5439C43.1408 29.5439 43.2691 29.4156 43.4864 29.2409C43.7038 29.0662 43.9641 28.8507 44.3366 28.8507C45.0009 28.8507 45.3327 28.9494 45.7056 28.9494C46.0784 28.9379 46.2939 28.8507 46.2939 28.8507C46.2939 28.8507 46.6844 29.1245 47.5638 29.1245C48.4435 29.1361 49.0318 29.2117 49.4922 29.2528C49.9526 29.2939 51.4959 29.1245 51.9387 29.1376C52.2273 29.1487 52.5108 29.2181 52.7719 29.3415L51.3446 25.1943L46.2175 20.713L43.165 22.8742L38.4695 27.5693L33.926 29.2528L32.9764 30.3188V31.9439H32.9648Z" fill="#CCB360"/>
<path fill-rule="evenodd" clip-rule="evenodd" d="M43.157 29.567C43.157 29.567 43.2852 29.4392 43.5003 29.2645C43.7153 29.0897 43.9784 28.8739 44.3508 28.8739C45.0148 28.8739 45.3469 28.973 45.7198 28.973C46.0927 28.9615 46.3081 28.8739 46.3081 28.8739C46.3081 28.8739 46.699 29.1473 47.578 29.1473C48.4577 29.1589 49.046 29.2345 49.5064 29.2752C49.9668 29.3159 51.5101 29.1473 51.9529 29.16C52.2415 29.1709 52.5248 29.2402 52.7858 29.3639L52.1391 27.4938L51.388 26.0669L49.2442 23.7191C49.2442 23.7191 46.6714 22.2046 46.6518 22.1931C46.6403 22.1816 45.7605 21.9485 45.7605 21.9485L43.4304 23.3582L41.3161 28.8282L41.2754 29.9802L42.644 30.6269C42.9876 30.0509 43.3667 29.5901 43.7219 29.5317C43.4012 29.5667 43.1566 29.5667 43.1566 29.5667L43.157 29.567Z" fill="#D5B457"/>
<path fill-rule="evenodd" clip-rule="evenodd" d="M43.1283 29.9574C42.9244 29.969 42.7559 29.9283 42.709 29.7827C42.5343 29.2935 42.3945 29.2236 42.2482 29.2236C42.1019 29.2236 41.9045 29.5381 41.7874 29.5669C41.6703 29.5957 41.5313 29.206 41.5313 29.206L41.403 29.1476C41.403 29.1476 40.6515 29.6368 40.1216 30.2136C39.5917 30.7903 38.7235 31.7692 38.3333 31.9435C37.9432 32.1178 36.603 32.1766 36.1445 32.2756C35.686 32.3747 35.1776 32.7069 35.1077 32.7825C35.0379 32.8582 35.312 32.9396 35.3527 33.0152C35.3934 33.0851 34.9038 33.0559 34.8631 33.1304C34.8343 33.1888 34.9783 33.5206 35.0498 33.6895C35.1747 33.6274 35.3119 33.5936 35.4514 33.5905C35.8999 33.5789 36.2263 33.8762 36.762 33.8762C38.0553 33.8762 39.2261 32.9265 40.0882 32.6351C40.7234 32.4196 41.2709 32.2622 41.6553 31.9128C41.8416 31.7557 42.1737 31.4059 42.4767 30.8875C42.6979 30.5323 42.9137 30.2001 43.1295 29.9555L43.1283 29.9574Z" fill="#D2B257"/>
<path fill-rule="evenodd" clip-rule="evenodd" d="M24.5825 58.7865C24.5825 58.7865 24.4673 58.3553 23.3998 57.2428C23.0968 56.9283 22.9106 56.6668 22.7067 56.4798C22.1998 56.0017 21.9026 55.8739 21.5416 55.6001C20.7494 55.0118 19.8873 55.0118 19.2234 54.2895C18.5595 53.5672 17.7857 52.1871 17.2481 50.7766C16.7182 49.367 16.5723 48.9185 16.5723 48.8778C16.5723 48.8371 16.7182 48.5633 16.9044 48.604C17.0907 48.6447 17.0907 49.0056 17.1375 49.0932C17.2303 49.2361 17.3355 49.3705 17.452 49.4948C17.7258 49.8097 18.1159 50.186 18.3141 50.7475C18.2734 50.2698 18.1102 49.7398 18.1102 49.7398C18.1102 49.7398 19.1355 50.3865 20.0091 51.062C20.8888 51.7378 21.2498 51.9709 21.5067 52.4017C21.7636 52.8326 22.3687 53.9688 22.6587 54.301C22.9486 54.6332 26.9211 55.8854 26.9211 55.8854L28.8107 57.2943L29.7488 59.3506L29.0146 60.5026L27.605 60.8056L25.3156 59.7803L24.5825 58.7861V58.7865Z" fill="#D2B159"/>
<path fill-rule="evenodd" clip-rule="evenodd" d="M19.4902 51.7028C19.4902 51.7028 19.9679 52.4658 21.133 53.1881C22.1817 53.8233 23.8417 54.4 25.3217 54.7437C26.1718 54.9476 27.0224 55.1047 27.7854 55.1166C29.8417 55.1454 31.2571 54.5575 33.0109 54.3651C33.9605 54.266 35.1256 54.1904 36.3371 53.9043C37.8923 53.5314 38.8127 53.1117 40.0653 52.5219C40.9739 52.1026 41.8072 51.7881 42.4826 51.386C43.4322 50.8269 44.1254 50.2037 44.9295 50.0175C44.8304 50.2912 44.7256 50.7805 43.9334 51.2873C44.3527 51.2754 44.9295 51.2466 44.9295 51.2466C44.9295 51.2466 44.3704 51.5784 43.3858 52.3241C42.7798 52.7849 41.9761 53.5648 41.1547 54.0832C40.6244 54.4154 40.0477 54.6592 39.669 54.8582C38.7474 55.365 38.3757 55.6212 37.7702 56.2406C37.9856 56.229 38.0033 56.2406 38.0033 56.2406C38.0033 56.2406 37.2399 56.3396 36.6927 56.6307C36.5775 56.6307 36.3778 56.59 36.0283 56.6891C35.7546 56.7762 35.3932 56.9748 35.0207 57.0792C34.4904 57.2367 34.3161 57.1668 34.3161 57.1668L34.4033 57.3415C34.4033 57.3415 33.7121 57.3296 33.4817 57.353C33.5224 57.3645 33.5108 57.3822 33.5108 57.3822C33.4704 57.389 33.4314 57.4027 33.3956 57.4229C33.2848 57.4947 33.1628 57.5478 33.0347 57.58C32.9648 57.5915 32.9064 57.5915 32.8189 57.6091C32.8481 57.679 33.0754 58.0699 33.1802 58.3003C33.0931 58.3587 31.7821 59.349 31.7821 59.349C31.8227 59.413 31.856 59.4814 31.8811 59.5529C31.9218 59.6808 31.9395 59.8674 31.9802 59.9546C32.0789 60.1293 32.1373 60.1585 32.1373 60.1585C32.1373 60.1585 31.9802 60.1877 31.706 60.2576C31.4733 60.316 31.1876 60.4146 30.7844 60.473C30.6607 60.4891 30.5363 60.4988 30.4116 60.5022C30.4699 60.6304 30.7261 61.1197 30.2541 61.6845C29.7822 62.2494 29.6367 62.3316 29.4911 62.6925C29.4179 62.6371 29.3399 62.5883 29.258 62.5466C29.101 62.4767 28.8852 62.3723 28.8095 62.2321C28.7654 62.4189 28.707 62.6019 28.6348 62.7797C28.4893 63.1698 28.2738 63.5546 28.2331 63.8457C28.0757 63.671 27.7846 63.3273 27.3826 63.3972C26.9805 63.4671 26.6603 64.0146 26.5904 64.1721C26.5904 64.073 26.5205 63.9974 26.5032 64.1137C26.4913 64.242 26.2701 65.5814 25.0352 66.665C25.0237 66.3912 25.0237 65.7853 24.9945 65.5875C24.8793 65.7027 24.7384 65.8728 23.8993 66.2342C23.0779 66.5951 23.2081 66.9565 23.2081 66.9565C23.2081 66.9565 23.1382 66.3805 23.581 65.7737C24.0295 65.1682 24.3033 64.8825 24.3033 64.836C24.2961 64.7887 24.2758 64.7443 24.2449 64.7078C24.1866 64.6494 24.0702 64.5795 24.0702 64.533C24.1401 64.5042 24.8332 64.1721 24.7925 63.4843C24.7518 62.8672 24.4899 62.5466 24.3033 62.3197C24.2745 62.2905 24.5775 62.0751 24.5364 62.0052C24.5072 61.9645 24.1347 61.6903 24.0879 61.5444C24.0989 61.4573 24.1184 61.3715 24.1462 61.2882C24.1869 61.16 24.2161 61.0724 24.2046 60.9853C24.1754 60.8397 24.018 60.4377 23.9715 60.397C24.0122 60.4085 24.3033 60.397 24.3033 60.397C24.3033 60.397 24.0706 60.0241 24.0295 59.8494C23.9884 59.6747 23.9012 59.2143 23.8548 59.1271C23.9539 59.1386 24.1985 59.1559 24.1985 59.1271C24.2104 59.0395 23.983 58.894 24.0833 58.7815C24.1531 58.793 24.2872 58.8514 24.415 59.0146C24.3451 58.828 24.2288 58.467 23.9838 58.3215C24.099 58.2808 24.4907 58.1755 24.8344 58.3794C25.178 58.5833 25.2952 58.8687 25.2952 58.8687C25.2952 58.8687 25.4991 59.0261 25.8139 59.2592C26.1749 59.5445 26.6349 59.9504 27.3691 60.2376C27.5266 60.3252 27.9283 60.3252 28.2197 60.2668C28.3466 60.2366 28.4683 60.1875 28.5807 60.1213C28.6212 60.0974 28.6642 60.0778 28.7089 60.0629C28.6463 59.9372 28.5743 59.8164 28.4935 59.7016C28.5926 59.7016 28.7089 59.7135 28.7089 59.7135C28.7089 59.7135 28.7788 59.556 28.4643 59.2527C28.5342 59.1828 28.6218 59.1375 28.6218 59.0196C28.5227 59.008 28.348 58.8625 28.3073 58.8041C28.3652 58.7634 28.4528 58.6294 28.5519 58.5887C28.4643 58.5188 28.2489 58.2274 28.1498 58.1986C28.2445 58.1634 28.336 58.1205 28.4236 58.0703C28.4236 58.0703 27.9344 57.9421 27.777 57.8372C27.6195 57.722 27.3868 57.5227 27.247 57.4644C27.1011 57.406 26.845 57.3772 26.7402 57.2605C26.8388 57.2896 26.9963 57.2605 27.113 57.2605C27.2002 57.2605 27.2413 57.272 27.2701 57.272C27.2586 57.2313 27.2586 57.1437 27.4859 57.1149C27.5952 57.0984 27.7013 57.065 27.8004 57.0159C27.8004 57.0159 27.5846 57.0043 27.3396 56.7712C27.0946 56.5382 26.8911 56.3519 26.7513 56.3227C26.6058 56.2936 26.332 56.4218 26.163 56.4099C25.9299 56.3811 25.8308 56.2644 25.8308 56.2644C25.8308 56.2644 25.0563 56.3343 23.3379 55.2859C21.8522 54.377 21.2056 53.5733 21.2056 53.5733C21.0665 53.5228 20.9321 53.4604 20.8039 53.3867C20.2448 53.0956 19.4699 52.4896 19.4933 51.6971L19.4902 51.7028Z" fill="#C2A44D"/>
<path fill-rule="evenodd" clip-rule="evenodd" d="M40.9228 16.7398C41.0575 16.7836 41.1773 16.8643 41.2684 16.9729C41.5421 17.2874 41.7169 17.8814 41.0936 18.5166C41.3382 18.6037 41.4392 18.6318 41.6527 18.6037C41.4373 18.8602 40.9481 19.4078 40.9189 19.8855C40.8897 20.2757 41.1343 20.3924 41.1343 20.3924C41.1343 20.3924 40.7615 20.8232 40.7442 21.5444C40.9203 21.3458 41.113 21.1626 41.3202 20.9968C41.7514 20.6531 42.3455 20.263 42.7475 20.0184C42.7421 20.1209 42.7559 20.2235 42.7882 20.321C42.7882 20.321 43.5393 19.7035 44.1706 19.9777C44.4559 20.1059 44.3277 20.5076 44.3277 20.5076C44.3277 20.5076 44.7182 20.3621 44.992 20.6359C45.2658 20.9096 45.6529 21.6158 45.8514 21.8896C45.9386 22.0179 46.1659 22.2625 46.3986 22.6411C46.7165 23.1712 46.982 23.731 47.1912 24.3127C47.2027 24.0097 47.2783 23.5381 48.1408 23.835C49.0029 24.1379 49.9813 24.7731 50.8027 26.0238C51.6241 27.2744 51.8276 28.6864 52.2412 29.224C52.6605 29.7424 53.0917 30.6045 53.1209 30.9658C53.1501 31.3272 52.9926 32.4919 53.8547 35.6433C54.0993 34.6649 54.4722 32.4919 54.4722 32.4919L54.6761 30.5753L54.9092 24.6452L48.7168 19.5007L43.8761 15.9879L40.7246 16.2909L40.9224 16.7394L40.9228 16.7398Z" fill="#CAA13E"/>
<path fill-rule="evenodd" clip-rule="evenodd" d="M52.4262 25.5649C52.4262 25.5649 52.3386 24.9889 50.8825 24.0097C49.426 23.0428 48.2901 23.0428 47.2418 22.2214C46.4377 21.5747 45.5991 20.089 45.053 19.5998C44.5227 19.1164 44.4355 17.7182 44.4355 17.7182L46.2238 16.2206L48.8834 12.3764L51.1317 9.90076L52.2092 11.3984L53.7068 13.1575L54.5397 16.6876L54.8427 21.8547L52.4235 25.5653L52.4262 25.5649Z" fill="#B59544"/>
<path fill-rule="evenodd" clip-rule="evenodd" d="M54.2286 31.7582C54.2727 30.9746 54.1759 30.1895 53.9429 29.44C53.5589 28.2458 52.7199 26.1254 52.3301 25.3312C52.1727 24.4515 52.2894 24.3816 52.4584 24.2825C52.6273 24.1835 53.2625 23.8217 53.6104 22.5526C53.9583 21.2835 55.0377 21.242 55.0377 21.242L55.7016 20.7528L56.7096 23.2749L57.589 25.5528L57.8628 27.2946L58.0667 28.7799L57.589 31.9199L55.2301 34.0519L54.2282 31.7582H54.2286Z" fill="#C89D3A"/>
<path fill-rule="evenodd" clip-rule="evenodd" d="M21.3125 66.7559V66.6914C21.3615 66.6607 21.4048 66.6217 21.4404 66.5762C21.4811 66.5178 21.5106 66.4479 21.5394 66.4306C21.5978 66.4015 21.8716 66.3154 22.0171 66.3431C22.1627 66.3707 22.5474 66.5293 22.7513 66.5178C23.1707 66.5063 23.6599 66.1857 24.4348 66.3316C25.5999 66.547 25.8737 67.3392 26.5495 67.7877C27.0103 68.1026 27.4872 67.9624 27.5571 67.9624H27.7142C27.7433 67.9624 27.9588 67.7178 28.0755 67.7297C28.3086 67.7412 28.3316 67.9336 28.4772 67.9451C28.8209 67.9858 29.4852 67.7704 29.8173 67.858C30.0172 67.9206 30.1739 68.0771 30.2367 68.2769C30.3065 68.4923 30.2482 68.7661 30.0792 68.9236C29.7183 69.2553 29.3746 69.5702 29.3047 69.8452C29.3936 69.9129 29.4789 69.9852 29.5604 70.0617C26.6782 69.3274 23.9051 68.2171 21.3125 66.7593V66.7559Z" fill="#CEB052"/>
<path fill-rule="evenodd" clip-rule="evenodd" d="M52.3301 55.1168C52.3301 55.1168 53.2386 53.9053 53.5535 53.3051C53.868 52.6865 52.5574 44.8529 52.5574 44.8529L55.1905 36.226L55.1202 33.4181C55.1202 33.4181 55.2485 30.8258 55.5515 29.7014C55.9128 30.3481 57.0371 31.1287 57.2818 31.5423C57.397 30.7497 57.7883 29.0782 57.7303 27.2957C57.9457 27.6274 58.4641 30.9655 58.4641 30.9655L58.9825 33.2139L59.6583 35.6023L60.4098 38.1248L60.8583 39.8667L61.1145 40.286L61.3303 41.0198L61.5342 41.8124L62.1225 43.6706L62.4681 45.1966L62.7419 47.9637C62.8014 48.1756 62.8443 48.3918 62.8701 48.6103C62.8816 48.9133 62.8294 49.088 62.8294 49.1406C62.8294 49.1933 62.9285 49.8046 62.8878 50.265C62.8294 50.7258 62.8294 51.0864 62.4681 51.417C62.1067 51.7476 61.8798 53.7237 61.8798 53.7237L61.2331 53.2928C61.2331 53.2928 61.3614 52.7042 61.0584 52.1685C60.7554 51.6328 60.1671 51.5218 59.835 51.6094C59.5032 51.6793 58.8393 51.7837 58.6235 51.9703C58.4195 52.1566 57.9188 52.7333 57.4584 52.9956C56.8824 53.3412 55.9439 53.3685 55.4432 53.4848C54.9363 53.6 54.3772 53.9456 53.7885 54.3469C53.327 54.6457 52.8396 54.9028 52.3324 55.1149L52.3301 55.1168Z" fill="#CCA847"/>
<path fill-rule="evenodd" clip-rule="evenodd" d="M52.3301 67.8449C52.3301 67.8449 52.3685 67.8699 52.4426 67.9106C56.5812 65.9716 60.2893 63.2231 63.3482 59.8274C63.3148 58.6485 63.2714 57.4401 63.2238 56.9923C63.1251 56.0427 63.195 55.0758 63.1658 54.5167C63.1366 53.9576 62.8221 51.6797 62.6766 51.0914C62.5191 50.5031 62.2158 50.2117 62.1697 50.2117C62.129 50.2236 61.884 51.3187 61.884 51.5941C61.884 51.8694 61.8256 52.5322 61.8256 52.7011C61.7849 52.6892 61.7676 52.5859 61.7676 52.5437C61.7093 52.6892 61.6394 52.9457 61.6102 52.9749C61.581 53.0041 61.6509 52.7303 61.6102 52.672C61.5695 52.6136 61.495 52.6428 61.5111 52.4972C61.518 52.4109 61.5316 52.3253 61.5518 52.2411C61.5518 52.2411 61.3771 52.4972 61.2492 53.1497C61.121 53.7963 61.121 53.814 61.0745 53.872C61.0338 53.9422 60.8007 54.1749 60.7888 54.2625C60.7773 54.4195 61.0046 54.577 61.0219 54.6642C61.0334 54.8101 60.818 55.4855 60.7481 55.8162C60.6782 56.1468 60.7074 56.7946 60.6329 57.1267C60.5746 57.4297 60.5177 57.6044 60.3184 57.7323C60.464 57.7615 60.6037 57.8022 60.6037 57.8022C60.6037 57.8022 60.8076 58.6643 60.2892 59.3985C60.103 59.6546 60.0565 59.7713 59.8584 60.0044C59.4679 60.4353 59.1649 60.926 59.1357 61.2451C59.1156 61.151 59.102 61.0555 59.095 60.9594C59.095 60.9594 58.4894 61.6645 58.2329 62.0665C57.9012 62.5849 57.4407 62.5557 57.3113 62.684C57.1819 62.8122 57.1539 63.045 57.1961 63.2316C57.0809 63.2604 56.8643 63.3015 56.7184 63.75C56.6485 63.9827 56.4738 64.2108 56.2 64.3674C55.9262 64.5241 55.5941 64.5714 55.4251 64.6121C55.5707 64.6528 55.629 64.6528 55.6989 64.6992C55.6117 64.8448 55.2097 65.0721 54.7612 65.3635C54.3127 65.6373 54.0969 66.039 53.9863 66.3013C53.8711 66.5459 53.701 66.7033 53.4272 66.7325C53.5424 66.8024 53.7129 66.9652 53.8 67.0178C53.6718 67.047 53.4544 67.047 53.0662 67.3792C52.6584 67.7171 52.5186 67.8162 52.332 67.8453L52.3301 67.8449Z" fill="#C39D3C"/>
<path fill-rule="evenodd" clip-rule="evenodd" d="M44.2226 70.5445C44.4457 70.3881 44.6873 70.2601 44.9419 70.1632C45.8504 69.8022 46.8116 69.7323 47.1902 69.616C47.5515 69.5008 47.8368 69.3418 48.2853 69.2546C48.2734 69.3568 48.2635 69.4528 48.2527 69.5434C46.9304 69.9591 45.5839 70.2934 44.2207 70.5445H44.2226Z" fill="#D2BA6B"/>
<path fill-rule="evenodd" clip-rule="evenodd" d="M60.9849 46.647C60.9849 46.647 60.7987 47.6547 60.4665 48.2898C60.1344 48.9249 59.7753 49.8043 59.7753 49.8043C59.7775 49.6061 59.8009 49.4088 59.8452 49.2156C59.4259 49.4602 58.4064 50.0489 58.1172 50.3108C57.8434 50.5554 57.383 50.9866 57.2666 51.1905C57.5404 50.3868 57.8257 49.6645 57.8726 49.3324C57.4533 49.6353 55.4956 51.2489 54.4765 52.3149L51.3016 54.8838C50.9352 55.0815 50.5579 55.2582 50.1715 55.413C49.6243 55.6457 48.9776 55.8438 48.4999 56.0305C48.6282 55.6868 48.8317 55.3834 49.1174 55.0924C49.4204 54.807 50.3289 53.8225 50.4687 53.3644C50.5969 52.8867 50.6261 52.6013 50.4572 52.1993C50.2997 52.24 49.9388 52.2577 49.6942 52.3276C49.4496 52.3974 49.1873 52.6593 49.1873 52.6593C49.1873 52.6593 49.3735 51.5933 49.7756 50.5857C49.4726 50.5973 48.9542 50.6844 48.9542 50.6844C48.9542 50.6844 49.6765 49.4729 50.9126 48.6285C50.534 48.7091 50.1636 48.824 49.8059 48.9718C49.0836 49.2748 48.2914 49.7233 47.7031 49.9679C48.0349 49.5071 50.365 46.1816 51.7516 43.0824C53.134 39.9893 53.6505 39.1971 53.9535 37.537C54.1105 36.7157 54.0687 35.5018 54.1105 34.4147C54.1513 33.3368 54.2853 32.3699 54.1981 31.7233C54.5591 32.1718 55.9107 33.4359 55.9572 36.2614C55.9979 39.0865 54.6643 42.9023 53.2485 44.9582C53.5941 45.0573 54.4896 45.174 55.4096 43.5758C56.3297 41.9776 56.3185 41.5314 56.6507 40.8671C56.6914 41.1992 56.6795 41.3156 56.6795 41.3156C56.6795 41.3156 58.0197 39.6905 58.6544 37.6457C58.7827 38.5254 59.1613 39.3004 58.5669 40.9139C58.0369 42.3701 57.3438 42.7256 57.3438 42.7256C57.3438 42.7256 57.6875 42.6673 58.194 42.3643C58.2816 42.5797 58.2643 42.8251 58.4098 42.9119C58.5553 42.9987 58.7535 43.145 58.7827 43.2847C58.9397 43.0517 59.1843 42.7544 59.2604 42.5333C59.202 42.9941 59.1613 45.0089 59.3756 46.0342C59.8245 45.9935 60.2845 45.9643 60.599 45.1544C60.3836 45.947 60.3836 46.4243 60.5291 47.1002C60.768 46.9373 60.9834 46.6459 60.9834 46.6459L60.9849 46.647Z" fill="#C0993A"/>
<path fill-rule="evenodd" clip-rule="evenodd" d="M45.8489 14.538C45.8489 14.538 45.4004 14.7243 44.6374 14.7243C43.9735 14.7243 44.1597 14.4681 43.1229 14.4681C41.527 14.4681 35.9521 15.3897 34.9733 15.3767C34.3381 15.3652 37.1168 15.6505 37.1168 15.6505L44.2181 15.7495L45.645 15.6343L46.1753 14.5553L45.8489 14.538Z" fill="#A88F33"/>
<path fill-rule="evenodd" clip-rule="evenodd" d="M27.4338 28.4195C27.4338 28.4195 26.5249 29.1126 26.1405 29.6429C25.7561 30.1733 25.5522 30.5223 25.1152 30.9535C25.2178 30.9575 25.3203 30.9437 25.4182 30.9128C25.4182 30.9128 25.4182 31.028 25.3483 31.0584C25.4706 31.0447 25.5926 31.087 25.6801 31.1736C25.5518 31.2435 25.2024 31.5933 25.4762 32.0069C25.6801 32.3213 26.1113 32.3501 26.1113 32.3501C26.1113 32.3501 26.0123 32.6358 26.4258 32.6067C27.3171 32.566 28.3132 32.1754 28.7732 32.2745C29.234 32.3897 29.4959 32.4319 29.8219 32.9972C30.1675 33.5563 30.4686 33.6438 30.4686 33.6438C30.4686 33.6438 30.6725 33.1251 30.626 32.3505C30.7932 31.933 30.8859 31.4895 30.8998 31.0399L30.5968 28.8089L29.2747 27.137L27.5621 28.0866L27.4338 28.4184V28.4195Z" fill="#E3C571"/>
<path fill-rule="evenodd" clip-rule="evenodd" d="M29.0605 28.0873C29.0605 28.0873 29.1888 28.3902 29.7249 28.419C29.6665 28.5473 29.6665 28.565 29.6842 28.6636C29.6957 28.7627 29.713 28.9082 29.713 28.9082C29.772 28.8797 29.8253 28.8407 29.8704 28.793C29.8996 28.9213 29.8412 29.1248 29.8704 29.2707C29.8884 29.3595 29.9177 29.4456 29.9576 29.5269C29.9661 29.5069 29.9758 29.4876 29.9868 29.4689C29.9983 29.4397 30.102 29.7834 30.3888 30.0449C30.3886 30.0047 30.3985 29.9651 30.4176 29.9297C30.422 30.0027 30.4462 30.0732 30.4875 30.1336C30.466 30.1234 30.4464 30.1096 30.4295 30.0929C30.4295 30.0929 30.4583 31.0145 30.6157 31.491C30.6421 31.4602 30.6655 31.4271 30.6856 31.392C30.6856 31.3632 30.6741 31.6485 30.6449 31.8528C30.6042 32.0567 30.6334 32.342 30.6334 32.342C30.7384 32.2593 30.8539 32.1907 30.9767 32.1381C31.1514 32.0678 31.4375 31.8524 31.6118 31.3747C31.713 31.1041 31.791 30.8255 31.8449 30.5418C31.9013 30.6502 31.9401 30.7668 31.9601 30.8874C31.972 31.0329 32.2458 30.9573 32.2458 30.9573L32.3042 30.3221L32.6498 28.8833L32.9643 27.992L34.4788 25.6331L37.2152 23.5257L39.6037 24.0733L41.6189 21.3354L38.1471 19.2499L34.8616 19.5936L31.8799 23.7235L29.4918 27.4694L29.0605 28.0869L29.0605 28.0873Z" fill="#D8B65B"/>
<path fill-rule="evenodd" clip-rule="evenodd" d="M46.2649 22.1107C46.2649 22.1107 46.061 22.1514 45.4728 22.4563C44.8845 22.7612 44.4767 22.8579 44.2493 23.3064C44.022 23.755 44.0047 24.1105 44.0047 24.1105C44.0047 24.1105 44.4068 23.9358 44.6399 23.8774C44.8845 23.8195 45.1583 23.8367 45.1291 23.9358C45.1011 24.0037 45.0622 24.0667 45.0139 24.1221C45.0139 24.1221 45.4747 24.1105 45.4624 24.3379C45.4501 24.5652 45.3752 24.8156 45.2881 24.9262C45.2005 25.0414 44.8395 25.2118 44.7988 25.3459C44.6998 25.6197 44.8395 25.6312 44.7869 25.8524C44.7462 26.0682 44.5542 26.4875 43.9249 27.2213C43.2782 27.9555 43.0033 28.4739 43.0033 28.4739C43.0033 28.4739 42.6888 27.8856 42.5256 27.3788C42.4104 27.4367 41.7917 27.7804 41.7917 27.7804L40.3586 22.7884L40.3874 22.4563C40.3874 22.4563 40.5157 22.2992 40.5449 22.0078C40.3295 21.9379 40.3003 21.8795 40.0146 21.6061C39.7289 21.3327 39.4962 21.0001 39.0189 20.7728C38.949 20.6446 38.8614 20.4702 38.512 20.3999C38.1625 20.3297 37.9529 20.2721 37.9529 20.2721C37.9529 20.2721 38.1391 20.2018 38.2267 20.0563C38.0109 20.0854 37.8365 20.1553 37.3646 20.1438C36.8869 20.1319 36.8343 20.1146 36.5724 20.1553C36.3105 20.196 35.9964 20.3128 35.8793 19.9107C35.751 19.8117 35.4772 19.8992 35.2441 20.2425C35.0111 20.5858 34.9297 20.86 34.4811 20.994C34.4496 21.1917 34.3804 21.3815 34.2772 21.5531C34.149 21.7689 33.9451 21.9843 33.6713 22.3046C33.2401 22.8115 33.3099 23.6444 32.6226 24.2795C31.9295 24.9142 32.7378 22.52 32.7378 22.52L33.8445 19.8704L36.996 16.7888L41.8893 16.457L42.367 18.9914L44.7554 19.8128L46.2642 22.1137L46.2649 22.1107Z" fill="#D3AE4D"/>
<path fill-rule="evenodd" clip-rule="evenodd" d="M47.0425 22.6697L44.9862 19.7048L43.5474 18.5978C43.5474 18.5978 42.5221 16.7108 42.4522 16.6524C42.3938 16.6117 41.4269 16.5069 40.8095 16.4662L40.9247 16.7515C41.0594 16.7953 41.1792 16.876 41.2703 16.9846C41.544 17.2991 41.7188 17.8931 41.0955 18.5283C41.3401 18.6154 41.4411 18.6435 41.6546 18.6154C41.4392 18.8719 40.95 19.4195 40.9208 19.8972C40.8916 20.2874 41.1362 20.4037 41.1362 20.4037C41.1362 20.4037 40.7634 20.835 40.7461 21.5557C40.9222 21.3572 41.1149 21.174 41.3221 21.0081C41.7533 20.6625 42.3474 20.2739 42.7494 20.0293C42.7439 20.132 42.7577 20.2347 42.7901 20.3323C42.7901 20.3323 43.5412 19.7148 44.1725 19.9886C44.4578 20.1169 44.3296 20.5189 44.3296 20.5189C44.3296 20.5189 44.7201 20.3734 44.9939 20.6472C45.2677 20.921 45.6578 21.6256 45.856 21.8998C45.9431 22.028 46.1705 22.2727 46.4032 22.6509C46.7212 23.1811 46.9866 23.741 47.1958 24.3228C47.2073 24.0897 47.2541 23.7637 47.6566 23.7637L47.0448 22.6686L47.0425 22.6697Z" fill="#CAA13E"/>
<path fill-rule="evenodd" clip-rule="evenodd" d="M16.2151 31.0934C16.2151 31.0934 16.0695 30.7321 16.2151 30.0274C16.3606 29.3228 16.5879 28.9906 16.6636 27.9538C16.7392 26.917 17.4151 25.6237 17.4151 25.6237L19.2848 24.7736L20.6073 25.1345L20.9974 26.9055L19.3255 27.8271C19.3255 27.8271 19.2383 28.2173 18.7664 28.5318C18.2944 28.8463 17.642 29.0909 17.485 29.4115C17.3911 29.6079 17.3226 29.8153 17.2811 30.029C17.2811 30.029 16.8034 29.9299 16.518 30.2444C16.2151 30.565 16.2266 30.8504 16.2151 31.095V31.0934Z" fill="#F4EFC8"/>
<path fill-rule="evenodd" clip-rule="evenodd" d="M19.9884 30.6212C19.9884 30.6212 19.8309 30.7203 19.7146 30.9668C19.5994 30.7806 19.324 29.6735 19.3125 28.6774C19.301 27.6813 19.2415 27.4344 19.4719 27.0911C19.7023 26.7478 20.6058 26.3861 20.4776 25.7678C20.3493 25.1796 19.8132 24.935 19.1551 25.1039C18.6943 25.2191 18.3514 26.1991 17.8737 26.6883C17.5123 27.0612 17.0815 27.0028 16.9651 27.2067C16.8077 27.4805 16.9532 27.7543 16.9068 27.929C16.8948 27.9874 16.7493 28.3019 16.487 28.6805C15.9571 29.4435 15.0601 30.5214 14.9434 31.4883C14.9841 30.9407 14.9553 30.9292 15.1008 30.3232L15.0132 30.1777L15.5892 28.2903L15.9621 26.7351L16.7954 24.1309L18.263 21.469L19.6904 19.8727L21.1757 19.9718L21.3504 22.2028L22.201 26.3915L23.9892 28.5933L21.1231 30.5222L19.9872 30.6212H19.9884Z" fill="#EBCC73"/>
<path fill-rule="evenodd" clip-rule="evenodd" d="M20.8779 31.4129C20.8779 31.4129 20.6333 31.4713 20.5458 31.4248C20.4582 31.3784 20.3715 31.3258 20.4003 31.2674C20.4291 31.209 20.5865 31.1103 20.5865 31.0635C20.5932 30.9755 20.5287 30.8981 20.441 30.8888C20.3069 30.8715 20.2662 30.9587 20.2662 30.9587C20.2662 30.9587 20.138 30.86 20.0335 30.8435C20.0953 30.8359 20.1575 30.8319 20.2198 30.8316C20.0588 30.7586 19.888 30.7096 19.7129 30.686C19.8584 30.5989 20.1441 30.3423 20.3304 30.3423C20.5166 30.3423 20.6333 30.3135 20.6042 30.2145C20.575 30.1154 20.4294 29.9699 20.2724 29.9115C20.3304 29.8416 20.3715 29.7368 20.2317 29.4507C20.0858 29.1654 20.1441 28.973 20.191 28.9035C20.2317 28.8159 20.3772 28.6589 20.4471 28.5598C20.517 28.4607 20.5754 28.3267 20.6917 28.2568C20.7501 28.2161 20.9363 28.1416 21.1229 28.0706C21.3268 28.0007 21.4958 27.9132 21.6122 28.0007C21.7404 28.0879 21.682 28.2046 21.682 28.2046C21.682 28.2046 22.0841 28.0587 22.4451 28.2453C22.8064 28.4197 23.6861 28.5306 23.6861 28.5306L24.0014 29.1658L21.9159 30.9541L21.0538 31.3853L20.8791 31.4141L20.8779 31.4129Z" fill="#E5C66B"/>
<path fill-rule="evenodd" clip-rule="evenodd" d="M23.7742 28.4896C23.7742 28.4896 23.1275 28.9208 22.982 29.0779C23.0692 29.0898 23.2147 29.1481 23.1563 29.2353C23.0864 29.3225 22.6671 29.6254 22.434 29.9111C22.1894 30.1965 21.9563 30.5578 21.8749 30.7325C21.7877 30.8896 21.1234 31.35 20.8965 31.408C21.3742 31.408 22.3353 30.8197 22.6963 30.8197C22.6848 30.9944 22.7954 31.1926 22.9993 31.2098C23.2032 31.2271 23.7915 31.3381 24.5837 30.8489C25.3758 30.3712 25.114 30.0156 25.4457 29.7829C26.0809 29.3632 26.337 28.9903 26.6864 28.7576C27.0359 28.5249 27.2167 28.4719 27.2167 28.4719C27.2167 28.4719 27.2283 28.2972 27.3319 28.3149C27.3898 28.3215 27.4392 28.3596 27.4602 28.4139C27.4602 28.4139 28.0661 27.9827 28.8426 27.8663C28.8245 27.8582 28.81 27.8438 28.8019 27.8256C28.8019 27.8256 28.8599 27.7965 28.8718 27.7673C28.8718 27.7673 28.9125 27.7089 28.9417 27.7381C28.9709 27.7673 29.0116 27.9827 29.0699 28.0702C29.1982 28.0119 29.4428 27.4643 29.4428 27.4643L30.0315 25.7808V24.2429L29.5707 24.3305L26.1147 25.7981L24.0173 27.9712L23.7726 28.4896H23.7742Z" fill="#E6BD62"/>
<path fill-rule="evenodd" clip-rule="evenodd" d="M33.7232 20.9458C33.9102 20.9005 34.0894 20.8278 34.2551 20.73C34.1852 20.9167 34.1852 21.1206 33.8822 21.5633C33.5792 22.0061 33.5677 22.0702 33.3231 22.5302C33.0785 23.0079 33.0493 23.6953 32.8162 23.9979C32.9207 23.9471 33.0328 23.9138 33.148 23.8992C33.148 23.8992 32.9153 24.1031 32.8162 24.3185C32.7171 24.5339 32.5424 24.9824 32.1116 25.2566C31.6807 25.5308 31.1328 25.7051 30.5445 26.3518C29.9558 26.9865 29.3502 27.7906 29.0469 28.0798C29.2043 27.806 29.4197 27.2584 29.4781 26.8975C29.5365 26.5365 29.4662 26.1049 29.5653 25.6276C29.6643 25.1503 29.6643 24.8062 30.1413 23.9729C30.6182 23.1396 31.4346 20.2447 31.4346 20.2447L33.1937 19.6855L33.724 20.9439L33.7232 20.9458Z" fill="#B6933F"/>
<path fill-rule="evenodd" clip-rule="evenodd" d="M32.4523 19.8796C32.4523 19.8796 31.9224 20.6426 31.7768 21.3185C31.6313 21.9943 31.7649 21.9359 31.6778 22.2681C31.6256 22.4706 31.6256 22.683 31.6778 22.8856C31.8613 22.5899 32.1126 22.3422 32.4108 22.1629C32.9119 21.8603 33.3198 21.6445 33.5628 21.3884C33.8074 21.1146 34.0113 20.666 34.5413 20.3224C34.3258 20.2932 34.0229 20.1941 33.9653 20.2072C34.1811 19.9626 34.8273 19.5897 35.4798 19.1412C36.1264 18.6804 36.0857 18.4945 37.1344 18.0345C36.7907 18.0929 36.6275 18.0053 36.3418 18.0345C36.457 17.7899 36.8602 17.6732 37.2634 17.2715C37.6666 16.8698 37.0073 16.2754 37.0073 16.2754L33.9353 18.1336L32.45 19.8812L32.4523 19.8796Z" fill="#C49937"/>
<path fill-rule="evenodd" clip-rule="evenodd" d="M24.1191 18.4931L24.189 17.934L25.0688 16.5244L25.9892 14.0487V10.6641L25.9193 8.70689L26.0649 7.42509L26.1755 7.01767L26.2922 6.86023L27.0433 7.25037L28.0805 8.66004L28.1796 11.3807L27.1716 15.6738L24.2939 18.8138L24.1191 18.4931Z" fill="#DFC068"/>
<path fill-rule="evenodd" clip-rule="evenodd" d="M26.4072 6.70267C26.4072 6.70267 25.9464 6.71457 25.8481 8.63112C25.7498 10.5477 25.7021 11.5553 25.6323 12.5049C25.5624 13.4545 25.3996 14.0309 25.3178 14.5904C25.236 15.1499 25.1895 15.9125 24.9276 16.3787C24.8124 16.5941 24.5663 17.27 23.9895 17.7768C23.3428 18.336 22.3767 18.7265 22.2304 18.7557C21.9739 18.8136 20.6748 18.9419 20.1449 19.2334C19.9587 19.3324 19.638 19.4488 19.2828 19.7809C18.5778 20.4157 17.6401 21.5516 16.9642 22.9205C15.9274 24.9653 14.8906 30.738 14.8906 30.738L15.1237 30.3479C15.1237 30.3479 15.1529 29.8295 15.6713 28.9205C16.1782 28.012 16.0326 26.9925 16.7373 25.2506C17.0111 24.5867 17.3548 23.7246 17.7741 22.9904C18.4384 21.7962 19.2421 20.7709 20.052 20.2118C21.3741 19.3032 22.8306 19.1051 22.8306 19.1051L24.3977 18.0683C24.3977 18.0683 24.6715 17.5384 25.0328 16.9324C25.5393 16.0823 26.1848 15.1326 26.3258 13.7521C26.5416 11.7073 26.0228 10.3676 26.052 9.15605C26.0812 7.94453 26.0927 7.05326 26.3377 6.83745C26.5827 6.62165 26.4076 6.70344 26.4076 6.70344L26.4072 6.70267Z" fill="#A88F33"/>
<path fill-rule="evenodd" clip-rule="evenodd" d="M26.407 15.8484C26.407 15.8484 27.0982 14.1472 27.4146 12.6385C27.473 12.3355 27.5893 12.0329 27.6185 11.7883C27.7641 10.361 27.8048 9.77272 27.6185 8.99205C27.473 8.41605 26.9139 7.89688 26.6224 7.49445C26.3371 7.07473 26.2031 6.91845 26.2615 6.83013C26.3198 6.74181 26.5468 6.59742 26.768 6.6147C27.2431 6.62853 27.6918 6.83675 28.0091 7.1907C28.4576 7.7091 28.8128 9.46859 28.8128 9.46859L29.1864 11.7903L30.136 14.7144L26.4078 15.8507L26.407 15.8484Z" fill="#C99E3D"/>
<path fill-rule="evenodd" clip-rule="evenodd" d="M32.8998 14.0777C32.8998 14.0777 32.7715 14.1357 32.5388 14.0777C32.559 14.2716 32.469 14.4605 32.3057 14.5669C32.0611 14.4678 29.7713 14.666 29.7713 14.666C29.7713 14.666 28.7053 14.4794 28.3732 13.0697C28.1405 12.1316 28.5479 10.8387 28.4139 9.9881C28.21 8.7355 27.9247 8.4905 27.8955 8.10074C27.8663 7.71098 27.8371 7.61153 27.8371 7.36692C27.7088 7.33774 27.6332 7.29703 27.5053 7.29703C27.4761 7.18183 27.5341 7.08122 27.4062 6.87732C27.4761 6.9065 27.9538 6.96487 28.5129 7.49479C28.9737 7.92602 28.9737 8.08308 29.0432 8.17063C29.1304 8.2578 29.8354 8.86183 30.1384 9.46394C30.4414 10.0661 31.0297 11.9861 31.1637 12.3006C31.2044 12.4288 31.2919 12.5571 31.5093 12.8481C31.8472 13.2678 32.3422 13.9617 32.9013 14.0769L32.8998 14.0777Z" fill="#B58634"/>
<path fill-rule="evenodd" clip-rule="evenodd" d="M29.127 8.19995C29.4798 8.77 29.7969 9.36148 30.0762 9.97096C30.4199 10.7455 30.6238 11.3806 31.055 11.899C30.8219 11.2236 30.4084 9.89531 30.1638 9.42338C29.89 8.92418 29.3309 8.38658 29.127 8.20034V8.19995Z" fill="#A88F33"/>
<path fill-rule="evenodd" clip-rule="evenodd" d="M25.1673 17.777C25.1673 17.777 24.579 17.9225 23.4838 18.4993C23.1225 18.6855 22.7792 18.8426 22.447 18.9885C21.5842 19.3787 20.6588 19.7392 19.9246 19.9381C19.9829 20.008 20.0117 20.0368 20.0117 20.0368C20.0117 20.0368 20.0117 20.3225 20.1692 20.4853C20.082 20.5729 18.9166 21.3651 19.2606 24.0155C19.4933 23.9283 19.7671 23.8116 19.8078 23.8116C19.8781 23.8235 19.8954 24.0155 19.9825 24.0155C20.0697 24.0155 20.3554 23.9003 20.6584 23.5086C20.6469 23.666 20.4721 25.2504 21.4099 26.3164C21.5846 26.1125 22.0273 25.4366 22.0273 25.4366L22.0389 25.2212C22.0389 25.2212 22.0796 24.4697 22.3246 23.7824C22.5695 23.095 23.0469 22.5881 23.0469 22.5881L25.5394 19.0288L25.1665 17.7766L25.1673 17.777Z" fill="#E6C367"/>
<path fill-rule="evenodd" clip-rule="evenodd" d="M22.8358 23.0033C22.7216 23.084 22.5959 23.1468 22.4629 23.1896C22.4222 23.0441 22.3638 22.5429 22.7075 22.0537C23.1095 21.465 23.9889 20.702 24.2335 20.0953C24.391 19.7048 24.3211 18.7264 25.7192 17.4737C27.1174 16.2211 27.6646 15.7903 27.6646 15.7903L29.9248 14.6544L32.7034 15.7496L31.3229 21.1601L30.2512 23.6945L25.9888 22.8908L22.8354 23.0033H22.8358Z" fill="#DCBA5A"/>
<path fill-rule="evenodd" clip-rule="evenodd" d="M24.4668 21.5342L24.9971 20.8702V20.3983C24.9971 20.3983 25.5854 20.2408 26.2201 19.5942C26.8549 18.9475 27.7346 17.7068 28.5095 17.7825C29.2845 17.87 29.3601 19.4659 29.3893 19.9148C29.4185 20.3637 29.5175 21.3825 29.6746 21.9304C29.8493 22.478 27.7872 24.5516 27.7872 24.5516L26.3868 25.6176L24.4668 21.5342Z" fill="#E9CE77"/>
<path fill-rule="evenodd" clip-rule="evenodd" d="M26.1074 27.062C26.1074 27.062 26.5387 26.3861 26.2226 26.2406C26.4089 25.8213 26.7525 25.3785 26.7525 25.3785C26.7525 25.3785 26.9972 24.773 27.7893 24.0272C28.5815 23.2815 29.0711 22.7861 29.1994 22.2854C29.2785 21.9591 29.3215 21.625 29.3276 21.2893C29.4133 21.3593 29.5049 21.4216 29.6014 21.4755C29.7297 21.5339 30.3353 22.0347 30.2481 23.0427C30.1609 24.0507 29.7873 24.47 29.7873 24.47C29.7873 24.47 29.4263 24.8309 29.1702 25.0176C28.896 25.2038 28.7973 25.4192 28.3369 25.4369C28.3842 25.3993 28.4374 25.3697 28.4944 25.3493C28.4944 25.3493 28.0167 25.2914 27.7602 25.5241C27.5036 25.7568 26.9584 26.4737 26.6846 26.6895C26.4108 26.8642 26.1086 27.0624 26.1086 27.0624L26.1074 27.062Z" fill="#CDAE50"/>
<path fill-rule="evenodd" clip-rule="evenodd" d="M45.4742 15.7316C44.786 15.4807 44.0628 15.3392 43.3307 15.3122C42.1073 15.2715 40.319 15.3414 38.5657 15.3529C36.6783 15.3644 34.9657 14.7063 32.5891 14.5899C32.199 14.3568 31.2067 13.3373 28.1094 15.4985C28.2956 15.4869 30.3581 15.0208 31.0742 15.9182C31.7965 16.8094 31.5926 18.3239 31.494 18.6849C31.3073 19.489 30.7014 20.6598 30.4572 21.4812C30.2129 22.3026 30.2705 22.7342 30.0958 23.3102C29.9211 23.8862 29.5367 24.1723 29.7636 24.8362C30.0666 24.65 30.2244 24.65 30.7306 23.5141C31.2367 22.3782 31.1326 21.5684 31.9716 20.6072C32.793 19.6403 34.1604 18.3178 34.6804 17.9856C35.2003 17.6535 39.3287 15.51 43.6514 17.5548C44.6939 17.4442 45.4746 15.7312 45.4746 15.7312L45.4742 15.7316Z" fill="#D2A83E"/>
<path fill-rule="evenodd" clip-rule="evenodd" d="M29.8508 14.9393C29.8466 14.8955 29.8369 14.8524 29.822 14.811C29.7816 14.7258 29.7285 14.6472 29.6646 14.5779C29.6646 14.5779 28.6393 14.3917 28.1209 14.4497C27.212 14.5487 26.3906 15.6731 26.0062 16.2499C25.6218 16.8266 25.1442 17.7175 24.6258 18.1779C24.6314 18.1331 24.6211 18.0876 24.5966 18.0497C24.5966 18.0497 24.6258 18.0904 24.5678 18.1487C24.5098 18.2071 24.5094 18.2359 24.5386 18.2639L24.6261 18.3511C24.6549 18.3511 25.459 17.9898 26.5542 16.9687C27.7193 15.9027 28.6105 15.3559 29.0767 15.1685C29.3253 15.0629 29.5852 14.986 29.8512 14.9393H29.8508Z" fill="#C29637"/>
<path fill-rule="evenodd" clip-rule="evenodd" d="M49.7406 10.5592C49.7406 10.5592 49.554 10.7919 49.3209 11.0484C48.8025 11.596 48.1266 12.2131 47.5499 12.8482C47.0027 13.4542 46.3852 13.9261 45.6917 14.7183C44.9982 15.5105 44.1941 16.3899 43.9906 16.6464C43.8043 16.9029 43.6588 17.3222 43.6588 17.5376C43.5597 17.4677 43.4434 17.3921 43.4434 17.3921C43.4923 17.4836 43.5509 17.5695 43.6181 17.6486C43.7636 17.8525 43.9906 18.1094 44.1073 18.2661C44.2505 18.4655 44.3533 18.6911 44.4099 18.93C44.4798 18.9415 44.9283 19.0291 45.4878 18.1086C46.0473 17.1882 46.7807 16.1806 46.7807 16.1806L47.9458 14.4503L48.68 12.9826L49.6016 11.3399L49.7417 10.5592H49.7406Z" fill="#AC8132"/>
<path fill-rule="evenodd" clip-rule="evenodd" d="M50.9297 9.38269C50.9297 9.38269 50.2247 9.95869 49.9509 10.3043C49.6771 10.6499 49.0293 11.5569 49.0293 11.5569L49.2624 11.5277L50.4451 10.4794L50.9059 9.65802L50.9293 9.38423L50.9297 9.38269Z" fill="#A88F33"/>
<path fill-rule="evenodd" clip-rule="evenodd" d="M50.7199 55.6757C50.7199 55.6757 50.7083 55.198 50.9764 54.9127C51.2502 54.627 51.9433 54.2076 52.6191 52.6348C53.295 51.0619 53.3702 50.7067 53.3702 50.7067C53.3702 50.7067 52.1587 51.7435 51.4118 51.9881C51.5866 51.6268 51.6856 51.3706 51.7732 51.184C51.6741 51.0969 51.2548 50.9978 51.2141 50.9513C51.4468 50.7182 51.575 50.1472 52.047 49.7686C52.6529 49.3078 53.7596 48.516 54.6198 47.8102C55.4799 47.1044 57.1711 45.4628 57.3869 44.9851C57.5151 45.1713 57.5439 45.2877 57.5439 45.2877C57.5439 45.2877 56.6938 46.3948 56.251 47.0994C55.8605 47.7054 55.8897 48.049 55.8897 48.049L56.6938 47.7034C56.6938 47.7034 56.9265 48.5655 55.8724 49.8765C56.3332 49.7018 56.519 49.8066 56.7809 49.6607C56.3497 49.9349 55.7556 50.3077 55.1965 51.3326C54.649 52.3579 53.9032 53.5521 52.6452 54.2975C51.4218 55.0839 50.7168 55.6722 50.7168 55.6722L50.7199 55.6757Z" fill="#A67A2E"/>
<path fill-rule="evenodd" clip-rule="evenodd" d="M47.5615 16.3382C47.5615 16.3382 47.0838 17.3339 47.0139 18.1088C47.0024 18.2955 46.9555 18.441 46.9555 18.6564C46.944 19.3495 46.9962 20.1245 46.8403 20.4854C46.782 20.3399 46.7528 20.2408 46.6944 20.1828C46.6072 20.4274 46.4498 21.1904 46.3216 21.4758C46.2636 21.2895 46.1353 20.6429 46.1472 19.8799C46.1591 19.1168 46.176 18.9709 46.176 18.8139C46.1472 19.0466 45.9898 19.3615 45.9314 19.5477C45.8442 19.3906 45.7452 19.1867 45.6284 19.0178C45.5585 19.133 45.4714 19.3031 45.3957 19.3906C45.3838 19.3207 45.355 19.1341 45.3374 18.8722C45.3258 18.5693 45.3082 18.1791 45.3258 18.0973C45.3546 17.9403 45.5996 17.3228 46.118 16.7575C46.7355 16.0817 47.3706 14.783 47.5569 14.381C47.7431 13.9789 48.5353 12.3074 48.5353 12.3074H49.1413L48.2615 14.3111C48.2615 14.3111 47.7316 15.4063 47.4578 15.8087C47.184 16.2111 46.6072 17.3643 46.3507 17.8128C46.537 17.5682 46.6944 17.4399 46.881 17.2068C47.0615 17.0436 47.5623 16.339 47.5623 16.339L47.5615 16.3382Z" fill="#8C6228"/>
<path fill-rule="evenodd" clip-rule="evenodd" d="M50.9438 9.30652C50.8448 9.61116 50.6884 9.89401 50.483 10.1398C50.1217 10.571 49.3467 11.1474 48.9685 11.6074C48.6229 12.056 47.9317 13.2794 48.2458 14.7298C48.361 14.4153 48.578 13.792 49.1547 13.087C49.7315 12.382 50.349 11.5725 50.6523 10.9435C50.9549 10.3084 50.9956 9.80764 50.9956 9.80764L51.1108 9.6621L51.041 9.32994L50.9419 9.30652L50.9438 9.30652Z" fill="#CBA94C"/>
<path fill-rule="evenodd" clip-rule="evenodd" d="M62.738 47.9456C62.738 47.9456 62.5049 47.3108 62.4351 46.734C62.3652 46.1573 62.5503 46.0428 62.336 45.3827C62.2077 44.9807 61.975 45.0371 61.9167 44.9807C61.8583 44.9242 61.8176 44.3168 61.8291 43.9846C61.8406 43.6524 61.8176 43.2216 61.7592 43.035C61.6721 42.9651 61.6137 42.9067 61.4854 42.4759C61.3399 42.0446 61.27 41.8292 61.2001 41.7013C61.1302 41.5735 60.9259 41.4567 60.9259 41.3285C60.9259 41.072 61.159 40.9383 61.159 40.8677C61.1475 40.7221 60.9728 40.8389 60.9259 40.7978C60.868 40.7279 61.0719 40.3086 60.9962 40.2502C60.967 40.2214 60.7631 40.466 60.7105 40.3961C60.6521 40.3258 60.5823 39.6327 60.4774 39.1727C60.3787 38.7242 60.2735 38.3982 60.262 38.2642C60.2505 38.1359 59.4579 35.8757 59.2659 35.3281C59.1112 34.8654 58.9809 34.3948 58.8758 33.9184C58.8174 33.6446 58.7767 33.0851 58.7475 33.1435C58.7183 33.2019 58.736 33.4872 58.6891 33.4757C58.6484 33.4638 58.5029 32.4681 58.4564 32.3106C58.4157 32.1532 58.1707 31.6194 58.1108 31.2331C58.0525 30.8426 57.9246 29.8231 57.837 29.1299C57.7495 28.4368 57.7088 28.1515 57.7088 27.9779C57.7231 27.5534 57.6997 27.1284 57.6389 26.7081C57.5237 25.9738 57.2933 25.0826 57.0913 24.5646C56.7012 23.5858 55.664 21.0809 55.4785 20.4577C55.4785 20.3002 55.6824 20.3878 55.6824 20.3878C55.6824 20.3878 56.1889 21.6577 56.5618 22.6361C56.9231 23.6149 57.2668 24.477 57.3544 24.5646C57.4242 24.6517 57.9718 25.6129 58.2164 27.1858C58.461 28.7586 58.5482 30.209 58.6941 31.1759C58.764 31.6367 58.8224 32.1255 58.9679 32.6147C59.125 33.145 59.3696 33.6926 59.6902 34.5313C59.964 35.2363 60.1679 35.8246 60.2785 36.3315C60.4068 36.9781 60.4068 37.4674 60.4824 37.788C60.5527 38.0618 60.6571 38.609 60.9021 39.4008C61.1471 40.1926 61.5077 41.2125 61.7523 41.8473C62.2304 43.1171 62.4435 44.1774 62.5157 44.7426C62.5794 45.3251 62.7953 47.3408 62.7369 47.9463L62.738 47.9456Z" fill="#A88F33"/>
<path fill-rule="evenodd" clip-rule="evenodd" d="M50.9745 9.23692L50.9453 9.30681C50.9453 9.30681 51.0325 9.33599 51.0152 9.45273C51.0164 9.61244 51.0067 9.77205 50.986 9.93043C50.9572 10.1343 50.8988 10.2914 50.8873 10.4196C50.8873 10.6934 50.928 11.0079 50.5417 11.7886C50.4265 12.004 50.3555 12.1903 50.2971 12.3185C50.1516 12.633 50.1224 12.6799 49.9941 12.8254C50.198 12.7102 50.9323 12.2494 51.3047 12.3185C51.0486 12.4641 50.6581 12.7498 50.4135 13.1226C50.4718 13.1341 50.7164 13.181 51.1047 13.1226C51.7513 13.0235 52.4736 12.7905 53.1084 12.8369C53.8019 12.8776 53.5281 12.004 53.5281 12.004L52.7278 10.2449L51.2133 9.17932L50.9745 9.23731V9.23692Z" fill="#BE9C44"/>
<path fill-rule="evenodd" clip-rule="evenodd" d="M54.9222 22.4138C54.9222 22.4138 54.2464 21.738 53.9726 19.4186C53.6988 17.0885 53.7571 13.6586 53.7571 13.6586L53.2096 12.3189C53.2096 12.3189 53.0944 11.4276 52.8075 11.0958C52.5207 10.764 51.9573 10.2046 51.7008 9.93077C51.4443 9.65697 51.1532 9.28411 50.9785 9.22574C51.0657 9.08021 51.4562 8.25883 52.953 8.24731C54.4499 8.23579 54.9114 9.06869 55.0677 9.37166C55.224 9.67464 55.9298 10.9845 56.1917 13.4805C56.4363 15.9734 56.4482 16.16 56.4075 17.0221C56.3783 17.4998 56.2209 18.6065 55.9467 19.7888C55.6963 20.7911 55.4225 21.9096 54.9214 22.4161L54.9222 22.4138Z" fill="#A17C34"/>
<path fill-rule="evenodd" clip-rule="evenodd" d="M52.7994 24.4001C53.0246 24.4164 53.2496 24.3656 53.446 24.2542C53.6614 24.2427 54.4421 24.3417 55.0419 23.5787C55.0826 23.7531 55.1878 24.2254 54.9137 24.6447C55.0596 24.4988 55.275 24.4408 55.3042 24.4001C55.3157 24.6155 55.5196 25.2795 54.6575 26.893C54.8902 26.6369 55.164 26.6484 55.4086 26.6192C55.4205 26.9222 55.5834 27.9414 55.1525 28.4893C54.8672 28.8622 54.401 28.7455 54.401 28.7455C54.4078 28.6641 54.4078 28.5822 54.401 28.5008C54.3895 28.3434 54.3311 28.1864 54.3722 28.0815C54.147 27.9786 53.9418 27.8365 53.7663 27.6618C53.2594 27.1841 52.6012 26.3689 52.5547 25.7629C52.4964 25.0871 53.1023 24.9416 53.1023 24.9416C53.0516 24.8961 53.0083 24.843 52.9741 24.7841C52.9449 24.6854 52.9157 24.528 52.7994 24.4001Z" fill="#8C6228"/>
<path fill-rule="evenodd" clip-rule="evenodd" d="M48.3112 17.072C48.3112 17.072 48.2821 17.0313 48.125 17.2175C48.1542 17.0313 48.1834 16.8562 48.1949 16.6872C48.2692 16.5308 48.3654 16.3857 48.4806 16.2564C48.393 16.4307 48.3347 16.5881 48.3347 16.5881C48.3347 16.5881 48.5505 16.1861 48.865 15.9415C49.0804 15.7668 49.3542 15.6853 49.4705 15.5221C49.5988 15.3474 49.5696 15.3182 49.5988 15.2891C49.5988 15.2891 49.8845 15.1028 50.3215 14.5549C50.3795 14.485 50.467 14.4093 50.5254 14.3394C50.6241 14.2987 50.8572 14.1939 51.131 14.0537C51.4166 13.8967 51.7369 13.6813 51.935 13.5929C52.3252 13.4182 52.7391 13.4359 52.9311 13.1617C53.0767 13.121 53.2337 12.684 53.2049 12.3115C53.4204 12.3987 54.527 13.0861 54.9061 14.589C55.1798 15.655 54.6902 17.2978 54.4863 18.0903C54.2824 18.8829 54.2536 19.4708 53.9679 19.8318C53.6066 20.3099 52.4419 20.9838 52.1562 21.3175C51.9116 21.5913 51.1778 22.2844 51.2066 22.7851C51.2358 23.158 51.6958 23.3611 51.7953 23.4318C51.8947 23.5024 51.894 23.5892 52.0806 23.547C52.2672 23.5047 52.3367 23.4187 52.4127 23.4187C52.4999 23.4302 52.4999 23.4479 52.5406 23.4479C52.5701 23.447 52.5995 23.443 52.6282 23.436C52.6282 23.436 52.599 23.9663 51.3583 24.1272C51.2707 24.1391 51.1836 24.1679 51.0726 24.1856C51.2185 24.1157 51.3057 24.1157 51.4631 23.9003C51.2884 23.8711 50.7873 23.8419 50.659 23.8012C50.6997 23.7313 50.8337 23.5447 50.9443 23.4575C51.0434 23.3703 50.9328 23.3423 50.8456 23.3876C50.6956 23.4897 50.5516 23.6005 50.4144 23.7194C50.2689 23.8477 50.1406 24.0224 49.9075 24.1802C49.8376 23.9471 49.8492 23.5044 50.1233 23.1841C50.0531 23.1956 49.919 23.3995 49.7912 23.3588C49.7681 23.1463 49.7818 22.9315 49.8319 22.7237C49.9018 22.4614 50.2804 22.0014 50.2804 22.0014L52.1094 18.7332L52.4995 16.2575L48.3112 17.0712V17.072Z" fill="#92723A"/>
<path fill-rule="evenodd" clip-rule="evenodd" d="M48.2159 17.2115C48.2159 17.2115 48.1168 17.2814 48.3149 17.4154C48.2858 17.4561 48.2159 17.6017 48.1283 17.7008C48.0296 17.816 47.9244 17.8874 47.8837 17.9864C47.7965 18.1904 47.7266 18.3301 47.7266 18.4177C47.7266 18.5052 47.6975 19.0643 47.4529 19.4253C47.3653 19.5536 47.2662 19.769 47.1963 19.9145C47.0508 20.1706 46.9226 20.3753 46.8934 20.4905C46.8354 20.6944 46.7947 21.2535 46.7947 21.2535C46.7947 21.2535 46.9229 21.0961 46.9694 21.0381C46.8991 21.1836 46.8235 21.3407 46.7129 21.4574C46.7828 21.3991 46.9867 21.2535 47.3304 20.9505C47.8081 20.5489 48.5538 19.873 49.4627 19.3377C49.1885 19.4368 48.9558 19.4368 48.7696 19.466C48.9151 19.3205 50.2257 17.7825 50.9131 17.637C50.9548 17.5841 50.9756 17.5177 50.9714 17.4504L50.3828 17.3924L49.1885 17.6485L49.0142 16.7269L48.2159 17.2104V17.2115Z" fill="#B18E3E"/>
<path fill-rule="evenodd" clip-rule="evenodd" d="M50.1139 22.4544C50.1139 22.4544 49.9564 22.6114 49.8109 23.002C49.6989 22.885 49.6028 22.7537 49.5252 22.6114C49.3098 22.2505 48.978 21.7901 48.2031 22.0523C48.1916 21.8077 48.1739 21.6795 48.2031 21.5048C48.3314 21.476 48.7215 21.1615 49.1116 20.701C49.3858 20.3866 49.642 20.0252 49.8167 19.5652C49.9319 19.4776 50.1312 19.3321 50.3927 19.1631C50.7655 18.907 51.214 18.5572 51.2839 18.167C51.1092 18.2369 50.7364 18.4116 50.1769 18.3828C50.3927 18.2838 50.7244 18.1789 50.6837 17.7477C50.7713 17.6893 50.8412 17.6486 50.8412 17.6486C50.7755 17.6267 50.7064 17.6168 50.6373 17.6194C50.6254 17.5787 50.6081 17.5208 50.509 17.5496C50.41 17.5784 50.3938 17.5787 50.3808 17.6194C50.3401 17.6314 50.206 17.6194 50.107 17.6897C50.0079 17.76 49.7341 17.9923 49.6293 18.033C49.67 17.9631 49.728 17.8587 49.728 17.8587C49.728 17.8587 49.4427 17.8875 49.2388 17.9739C48.8659 18.1021 48.435 18.3352 47.998 18.5622C48.0388 18.4923 48.0564 18.447 48.0852 18.4339C48.114 18.4209 48.1843 18.4051 48.1843 18.3932C48.1843 18.3813 48.1555 18.278 48.1728 18.2362C48.3034 17.9594 48.4576 17.6943 48.6336 17.444C48.8375 17.1698 48.8782 16.7796 48.8782 16.7796L49.7694 16.3311L52.2743 15.7551L53.8997 15.8542L53.6958 16.9786L52.7358 18.9416L51.9145 20.7298L50.9764 21.8254L50.1143 22.4544H50.1139Z" fill="#543E26"/>
<path fill-rule="evenodd" clip-rule="evenodd" d="M54.1688 17.5888C54.1688 17.5888 53.1899 18.8004 52.9162 18.987C53.0909 18.6141 54.1688 16.3946 54.5589 15.7771C54.4717 15.7072 54.355 15.7072 54.6288 14.6251C54.3961 15.1723 54.3143 15.458 54.1223 15.6036C53.9303 15.7491 53.9065 15.7026 53.7767 15.7026C53.8012 15.6583 53.8113 15.6074 53.8055 15.5571C53.8055 15.5571 52.9841 15.458 52.4231 15.458C51.8621 15.458 50.7515 15.761 50.1337 16.0056C49.6445 16.2095 49.3707 16.2095 49.196 16.3374C49.0212 16.4829 48.9222 16.6404 48.8346 16.6811C48.7647 16.7218 48.433 16.8266 48.3569 16.9372C48.287 17.0524 48.1707 17.1818 48.1707 17.211C48.1707 17.2402 48.1415 17.2812 48.2291 17.2517C48.2579 17.2402 48.4737 17.1234 48.7183 16.9779C49.05 16.7916 49.4521 16.5762 49.7435 16.448C50.5764 16.1158 50.8387 16.1742 51.2112 16.1043C51.6013 16.0344 52.1608 15.8712 52.5333 15.8712C52.9062 15.8597 53.6112 15.8712 53.7744 15.9004C53.7045 15.9588 53.6461 16.0286 53.6753 16.2732C53.6753 16.3431 53.617 16.4188 53.5601 16.5877C53.3858 17.0654 53.0536 17.8576 52.8689 18.2597C52.6128 18.8069 52.3217 19.2673 52.1777 19.5526C52.0337 19.8379 51.7169 20.5894 51.4032 20.9915C51.0895 21.3935 50.9255 21.6381 50.8272 21.7257C50.7289 21.8132 50.0231 22.3312 50.0757 22.5179C50.204 22.4772 51.0138 22.1723 51.6017 21.5102C52.1896 20.8482 52.3067 20.4443 52.7668 20.0829C53.2268 19.7216 53.5882 19.116 53.8036 18.6153C53.9841 18.1491 53.9434 18.0036 54.1703 17.59L54.1688 17.5888Z" fill="#806031"/>
<path fill-rule="evenodd" clip-rule="evenodd" d="M33.0746 26.6312C33.0746 26.6312 32.9463 27.1611 32.6549 27.4234C32.3696 27.6799 31.8627 27.9011 31.8047 28.3323C31.7348 28.7632 32.3116 28.979 32.3116 28.979C32.3116 28.979 31.9967 29.4974 31.9967 29.8875C31.9967 30.2896 31.9852 30.3652 32.0259 30.7496C31.9797 30.7793 31.9404 30.8186 31.9107 30.8648C31.9107 30.8648 31.9395 31.2377 32.2252 31.4704C32.5109 31.7031 32.7551 31.8432 32.9006 31.7849C32.9229 31.8324 32.9424 31.8811 32.959 31.9308C32.959 31.9308 33.1748 31.3832 33.3204 30.9055C33.4659 30.4163 33.5941 30.4858 33.6521 29.8276C33.7101 29.1695 34.3433 28.0393 34.3433 28.0393L34.7753 27.0736L34.0707 26.526L33.0746 26.6308V26.6312Z" fill="#B6903C"/>
<path fill-rule="evenodd" clip-rule="evenodd" d="M34.3904 27.5807C34.2451 27.7299 34.111 27.8895 33.9891 28.0584C33.8029 28.3149 33.6574 28.5476 33.3836 28.6471C33.1098 28.7465 32.9351 28.7457 32.9523 29.0199C32.9696 29.2941 33.2261 29.4101 33.3717 29.5498C33.5291 29.6954 33.6574 29.94 33.5875 30.2142C33.6747 30.1735 33.8321 30.1266 33.9776 29.8121C34.1232 29.4976 35.1411 27.5811 35.1411 27.5811H34.3904V27.5807Z" fill="#685026"/>
<path fill-rule="evenodd" clip-rule="evenodd" d="M38.4008 23.1592C38.4008 23.1592 38.488 22.9265 38.4008 22.7575C38.3133 22.5828 37.7833 22.5244 37.5211 22.3263C37.2473 22.1224 36.9151 21.9807 36.6413 22.0701C36.682 21.9711 36.8452 21.7553 36.7112 21.7088C36.5829 21.6681 36.1056 21.8835 35.9774 21.9826C35.8491 22.0817 35.5577 22.198 35.4997 22.2683C35.4417 22.3386 35.3422 22.4722 35.2839 22.4138C35.2255 22.3731 35.1967 22.2683 35.0976 22.3263C34.9986 22.3842 34.5216 22.7748 34.4337 23.0021C34.3458 23.2294 34.148 23.7363 33.554 24.3127C32.9599 24.8891 32.7034 25.2623 32.8781 25.4778C33.0528 25.6932 33.1346 25.5361 33.1638 25.7224C33.1863 25.9052 33.1764 26.0905 33.1346 26.2699C33.0647 26.5729 32.9484 26.8582 33.1054 26.9166C33.5075 27.0449 33.898 26.8014 33.9852 26.8759C34.1599 27.033 33.8861 27.5982 34.2997 27.7088C34.7194 27.824 35.133 27.6097 35.133 27.6097L36.659 26.7883L38.127 26.0138L38.8781 24.5281L38.4753 23.2874L38.3985 23.1592H38.4008Z" fill="#D4B968"/>
<path fill-rule="evenodd" clip-rule="evenodd" d="M36.9598 26.7067C36.9598 26.7067 36.7033 26.3166 37.0182 25.9725C37.3331 25.6285 37.7812 25.4833 37.9559 25.2679C37.9227 25.2268 37.8781 25.1965 37.8277 25.1807C37.9436 24.9732 38.1206 24.8063 38.3345 24.7026C38.2474 24.6155 38.1306 24.5456 38.0028 24.5456C37.7171 24.5456 37.542 24.7203 37.2801 24.7203C37.024 24.7203 36.9948 24.592 36.9948 24.592C36.9948 24.592 37.426 24.5513 37.3849 24.3589C37.3442 24.155 37.2697 24.155 37.2697 24.155C37.2697 24.155 38.1026 23.8094 38.2481 23.6251C38.3937 23.4408 38.3764 23.2231 38.4056 23.1359C38.5043 23.1359 39.081 22.8329 39.3141 22.9612C39.5472 23.0894 39.384 23.4389 39.384 23.4389C39.384 23.4389 40.0894 22.9086 40.4488 22.3886C40.7633 22.4178 40.9096 22.1732 41.14 22.1732C41.4257 22.1732 41.8743 22.5634 41.9614 23.3963C42.0198 23.874 42.107 24.1477 42.0198 24.9925C41.9791 25.4702 41.9906 26.4901 42.135 26.9963C42.2337 27.3983 42.4668 27.3576 42.4668 27.3576C42.431 27.4801 42.3601 27.5895 42.2629 27.6721C42.1054 27.8176 42.0881 28.2024 42.1054 28.3479C42.1286 28.4543 42.1579 28.5593 42.193 28.6624C42.193 28.6624 42.0067 28.8779 41.9599 29.0238C41.9192 29.1693 41.7272 29.2684 41.587 29.2684C41.4469 29.2684 41.5171 29.2565 41.3309 29.2684C41.1447 29.2803 41.0863 29.3091 40.9696 29.2684C40.8528 29.2277 40.7656 29.1808 40.8125 28.8076C40.8532 28.4347 39.3736 27.5669 39.3736 27.5669L36.9544 26.7048L36.9598 26.7067Z" fill="#CCA849"/>
<path fill-rule="evenodd" clip-rule="evenodd" d="M34.1855 30.3884C34.1855 30.3884 34.7154 31.0934 36.8942 31.0934C37.931 31.0934 38.2924 30.9943 38.507 30.9359C38.7401 30.8776 39.6137 30.5343 40.4935 29.4971C41.2857 28.5594 41.111 28.175 41.111 28.175L40.6502 28.1051L39.1526 28.309L34.7212 30.1964L34.1836 30.3884H34.1855Z" fill="#585136"/>
<path fill-rule="evenodd" clip-rule="evenodd" d="M35.8092 30.5631C35.8092 30.5631 33.9219 30.9828 33.9219 29.7886C33.9219 28.6235 35.0869 27.4001 35.3784 27.1847C35.6814 26.9689 36.4037 26.7239 36.4037 26.7239H38.1455L38.4773 27.6036L38.3317 29.5025L35.8092 30.5627V30.5631Z" fill="#252211"/>
<path fill-rule="evenodd" clip-rule="evenodd" d="M37.5504 27.0798C37.5504 27.0798 37.1894 26.7476 36.368 27.195C35.5467 27.6424 34.8823 28.5774 34.8416 29.4264C34.8009 30.1775 35.4591 30.737 36.4844 30.7662C37.2474 30.795 37.7078 30.7078 37.9409 30.651C37.8825 30.5811 37.5796 30.2025 37.5796 30.2025L37.5508 27.0802L37.5504 27.0798Z" fill="#C3B378"/>
<path fill-rule="evenodd" clip-rule="evenodd" d="M37.1935 27.2658C37.1935 27.2658 37.1063 27.1959 36.8479 27.3357C36.6325 27.4509 36.318 27.7554 36.0734 27.9708C35.9159 28.099 35.8169 28.157 35.7278 28.2561C35.3664 28.6873 35.0634 29.3924 35.2386 29.7418C35.4137 30.0912 35.99 30.4933 37.4581 30.2195L37.1893 27.2661L37.1935 27.2658Z" fill="#E6D89C"/>
<path fill-rule="evenodd" clip-rule="evenodd" d="M36.7188 27.9881C36.7188 27.9881 36.4857 28.3494 36.4857 28.9262C36.4857 29.5145 36.8178 30.4522 38.0413 30.5221C38.979 30.5805 39.608 29.1708 40.2896 28.6232C40.808 28.2039 41.1225 28.192 41.1225 28.192C41.1225 28.192 40.5926 27.616 39.1771 26.8699C37.779 26.1184 36.2119 26.0193 35.3613 27.1729C35.7634 27.1437 37.0624 26.8115 37.0624 26.8115L37.6976 27.0154L36.7188 27.9885V27.9881Z" fill="#252211"/>
<path fill-rule="evenodd" clip-rule="evenodd" d="M38.5462 28.7511C38.5055 28.6639 38.4763 28.5472 38.6453 28.5184C38.8142 28.4896 38.8899 28.5065 38.9482 28.6336C39.0066 28.7607 39.0634 28.8667 38.977 28.9193C38.8899 28.9658 38.6625 28.9193 38.5458 28.7503L38.5462 28.7511ZM38.2776 27.9296C38.2776 27.9296 38.2192 27.9703 38.2484 27.8889C38.2599 27.7902 38.336 27.6151 38.5222 27.6562C38.7084 27.6972 38.6681 27.9008 38.6374 27.9591C38.6067 28.0175 38.4512 28.1162 38.3344 28.0743C38.3044 28.0667 38.2798 28.0451 38.2683 28.0164C38.2568 27.9876 38.2597 27.9551 38.2761 27.9288L38.2776 27.9296Z" fill="#6F674D"/>
<path fill-rule="evenodd" clip-rule="evenodd" d="M22.5039 28.3025C22.5039 28.3025 22.9647 28.6481 23.5 28.6347C24.0299 28.6228 24.7115 28.0756 25.026 27.7257C25.2123 27.5218 25.3716 27.3064 25.5444 27.1374C25.6903 26.9919 25.789 26.922 25.8589 26.8229C25.958 26.7077 26.0628 26.4912 26.1154 26.4209C25.9872 26.52 25.8009 26.6951 25.6085 26.8114C25.4223 26.9266 25.0203 27.1432 24.8571 27.2016C24.7 27.2599 23.0688 28.1232 23.0688 28.1232L22.5039 28.3025Z" fill="#AC924C"/>
<path fill-rule="evenodd" clip-rule="evenodd" d="M23.207 23.998C23.207 23.998 23.4632 23.8233 23.9585 23.7123C24.4362 23.5971 25.3974 23.5084 25.3974 23.5084L26.1896 23.854L26.5041 25.0483L25.9281 26.2894L25.1942 26.7502L24.361 25.4104L23.209 24.0003L23.207 23.998Z" fill="#9F8E57"/>
<path fill-rule="evenodd" clip-rule="evenodd" d="M22.1765 25.064L21.9023 25.2687C21.9023 25.2687 21.9726 25.1404 22.0306 24.7503C22.0886 24.3601 22.3919 23.4105 22.8347 22.8629C23.2774 22.3153 23.2659 22.3445 23.2659 22.3445C23.1835 22.3295 23.0986 22.3506 23.0328 22.4025C23.0912 22.2735 23.4641 21.8127 23.8369 21.5823C24.2098 21.3519 24.3553 21.2793 24.7455 21.4671C25.1356 21.6549 25.2347 21.7524 25.5204 21.7409C25.8061 21.7294 26.0503 21.4264 26.0503 21.4264C26.0503 21.4264 26.1087 21.6126 25.8933 22.0439C25.6778 22.4751 24.8273 23.3544 24.8273 23.3544L23.0563 24.566L22.1765 25.0652V25.064Z" fill="#EAC970"/>
<path fill-rule="evenodd" clip-rule="evenodd" d="M23.484 23.8526C23.484 23.8526 24.7657 24.0273 25.1559 23.6663C25.1674 23.707 25.2143 23.707 25.2143 23.7362C25.2111 23.7582 25.2009 23.7786 25.1851 23.7942C25.2275 23.7874 25.2704 23.7836 25.3133 23.7827C25.3646 23.798 25.4174 23.8077 25.4708 23.8119C25.5138 23.811 25.5566 23.807 25.599 23.8C25.5908 23.8585 25.5592 23.9111 25.5115 23.9459C25.5698 23.9459 25.6267 23.9574 25.6267 24.0039C25.6267 24.0503 25.6382 24.1905 25.5683 24.2197C25.5104 24.2357 25.4488 24.2315 25.3936 24.2078C25.3982 24.3181 25.4282 24.4258 25.4811 24.5227C25.5963 24.7381 25.8421 24.9835 26.1723 24.9128C26.1723 24.9128 26.3467 25.3321 25.6129 26.2641C25.5142 26.3924 25.4089 26.5671 25.2811 26.7126C25.2306 26.8227 25.1919 26.938 25.1659 27.0563C25.1659 27.0563 26.407 26.5786 26.7622 25.4892C27.1235 24.394 27.1934 23.3165 27.1235 22.3089C27.1116 22.0232 27.0651 21.8197 26.9953 21.6738C26.8205 21.3124 26.3309 21.3708 26.1332 21.5747C25.8475 21.8604 25.3698 22.5708 24.7058 23.06C24.03 23.5492 24.0012 23.636 23.4824 23.8526H23.484Z" fill="#D7BC6B"/>
<path fill-rule="evenodd" clip-rule="evenodd" d="M21.9422 25.4255C21.9422 25.4255 21.6976 25.5711 21.5694 26.1167C21.4411 26.6758 21.6846 27.3574 21.8255 27.5728C21.9664 27.7883 22.2863 28.3769 22.9498 28.4061C23.1141 28.4053 23.2765 28.3716 23.4275 28.3071C23.6592 28.2008 23.8764 28.0658 24.0742 27.905C24.3599 27.6896 24.5926 27.5033 24.5634 27.4857C24.4935 27.4565 22.8043 26.0584 22.8043 26.0584L22.1692 25.3495L21.9418 25.4263L21.9422 25.4255Z" fill="#585136"/>
<path fill-rule="evenodd" clip-rule="evenodd" d="M23.5392 27.7438C23.5392 27.7438 23.8829 27.715 24.0868 27.5868C24.2907 27.4585 22.8926 26.0723 22.8926 26.0723L22.9917 27.5699L23.5392 27.7438Z" fill="#453A25"/>
<path fill-rule="evenodd" clip-rule="evenodd" d="M22.0555 25.3202C22.0555 25.3202 21.8808 25.6524 21.8808 25.74C21.8516 26.0253 21.9391 26.9223 22.009 27.2076C22.0789 27.5106 22.4575 27.9706 22.9471 27.9706C23.2497 27.9706 23.6694 27.7844 23.6694 27.7379C23.6694 27.6795 23.2382 27.6227 23.1219 27.4057C23.052 27.2905 23.0228 27.0041 23.0067 26.7145C22.9951 26.5283 22.9951 26.3244 23.065 26.2537C23.2225 26.079 23.2513 25.5779 23.2513 25.5779L23.8104 24.5392H23.075L22.1953 25.0868L22.0555 25.3202Z" fill="#84754B"/>
<path fill-rule="evenodd" clip-rule="evenodd" d="M21.8418 25.6408C21.8418 25.6408 22.4178 24.8778 22.937 24.7027C23.4561 24.5276 23.6885 24.6328 23.6885 24.6328L23.3855 25.4078L22.9542 25.8855L22.9834 26.1301C22.9834 26.1301 22.9132 26.7767 23.3444 27.2252C23.7756 27.6737 24.0959 27.6565 24.2825 27.6565C24.4691 27.6565 25.0048 27.499 25.2786 26.8524C25.5232 26.2468 25.7271 25.47 25.2379 24.6912C24.7598 23.9163 23.9154 23.8864 23.7522 23.8864C23.589 23.8864 22.3076 23.9505 21.8418 25.6397V25.6408Z" fill="#252211"/>
<path fill-rule="evenodd" clip-rule="evenodd" d="M36.6327 28.2331C36.4173 28.134 36.6212 27.5285 36.8366 27.3418C37.052 27.1552 37.3258 26.9402 37.8039 26.9106C37.9782 26.8991 38.1472 27.0097 38.1184 27.1264C38.0777 27.3418 37.7747 27.6448 37.5009 27.8602C37.1223 28.1575 36.8773 28.3437 36.6327 28.2331Z" fill="#F7F7E7"/>
<path fill-rule="evenodd" clip-rule="evenodd" d="M24.9803 24.93C25.1377 24.9185 25.3416 25.0452 25.3823 25.2157C25.423 25.402 25.2833 25.7748 24.9803 25.7748C24.7357 25.7748 24.6074 25.4719 24.6074 25.3847C24.6102 25.313 24.6302 25.2431 24.6658 25.1808C24.6773 25.1631 24.7065 24.9592 24.9803 24.93Z" fill="#F8F6DE"/>
<path fill-rule="evenodd" clip-rule="evenodd" d="M22.7118 25.0641C22.7118 25.0641 22.3098 25.2503 22.1235 25.6401C21.9905 25.9279 21.9502 26.25 22.0083 26.5617C22.0375 26.7072 22.183 27.0682 22.2821 27.1964C22.3812 27.3247 22.5152 27.4122 22.6143 27.4003C22.7134 27.3884 22.9169 27.1265 22.9169 26.9695C22.9169 26.8124 22.9288 26.1481 23.1208 25.7868C23.2897 25.4258 22.713 25.0645 22.713 25.0645L22.7118 25.0641Z" fill="#D4C38B"/>
<path fill-rule="evenodd" clip-rule="evenodd" d="M22.7674 25.0349C22.6975 25.0756 22.5812 25.134 22.61 25.2097C22.6391 25.2796 22.8838 25.3249 22.9713 25.4954C23.0704 25.6701 23.0704 25.8563 23.0412 25.9439C23.1173 25.9077 23.1863 25.8583 23.2451 25.798C23.3734 25.6524 23.5304 25.4547 23.6644 25.4547C23.752 25.4547 23.8391 25.4954 23.9209 25.4954C24.0492 25.4954 24.1771 25.4547 24.1947 25.3206C24.2235 25.1459 23.9501 24.9885 23.7927 25.0177C23.8219 24.9025 23.8626 24.7324 23.7343 24.6156C23.6061 24.4989 23.2044 24.7032 23.1168 24.7615C23.0293 24.8199 22.7674 25.0353 22.7674 25.0353V25.0349Z" fill="#E2D59D"/>
<path fill-rule="evenodd" clip-rule="evenodd" d="M32.0265 37.2739L32.8885 37.0193L33.1331 37.194C33.1331 37.194 33.3075 37.5669 33.5817 37.6133C33.4941 37.7996 33.2668 37.9589 33.2787 38.091C33.2906 38.2231 33.4069 38.3241 33.4069 38.3241C33.4069 38.3241 32.632 39.6055 34.1584 40.8969C33.7971 41.0425 33.3371 41.2425 33.0924 41.3577C33.2668 41.3984 33.6396 41.4729 33.7971 41.6142C33.9545 41.7555 33.9545 41.8005 34.1001 41.888C34.2456 41.9756 34.3328 42.0919 34.304 42.1442C34.2049 42.0858 33.8727 41.9114 33.8147 42.0743C33.7568 42.2371 32.3759 42.1733 32.3759 42.1733L30.0458 42.6218C30.0458 42.6218 30.133 42.3888 29.8883 42.1733C29.603 41.9172 29.2536 42.1849 28.8807 41.8995C28.3915 41.5267 28.3739 41.0954 28.2168 40.9326C28.3739 40.8336 28.6945 40.688 29.4575 40.587C29.4283 40.5287 29.3292 40.3539 29.3876 40.1969C29.4575 39.993 29.7486 39.8647 29.6614 39.6209C29.7897 39.5917 29.8476 39.5917 30.1683 39.1897C30.4713 38.7876 30.6575 38.7004 30.8906 38.6713C31.1237 38.6421 31.2635 38.6713 31.6947 38.2692C31.9973 37.9839 31.8986 37.7393 31.8986 37.7393C31.8986 37.7393 32.0963 37.6752 32.0268 37.2731L32.0265 37.2739Z" fill="#CBAC5A"/>
<path fill-rule="evenodd" clip-rule="evenodd" d="M29.4818 37.4031C29.4933 37.3448 29.5402 37.3156 29.8547 37.3448C30.1692 37.3739 32.1614 37.1585 32.7032 37.1293C33.2508 37.0886 35.1788 37.1174 36.117 37.3156C37.0551 37.5137 38.0043 37.7468 38.4643 37.8632C38.9251 37.9914 39.0703 38.0375 39.0526 38.0959C39.0411 38.1542 38.9374 38.2111 38.8779 38.1949C38.8199 38.1834 37.2935 37.7172 36.822 37.6189C36.3504 37.5206 34.7188 37.2576 33.8268 37.2733C32.9939 37.2852 32.6617 37.2618 31.9571 37.3432C31.2521 37.4308 30.087 37.5471 29.7376 37.5007C29.392 37.46 29.4634 37.46 29.481 37.4016L29.4818 37.4031Z" fill="#D6BC6F"/>
<path fill-rule="evenodd" clip-rule="evenodd" d="M34.1677 41.969C34.1677 41.969 35.3619 42.6157 35.7932 43.4079C36.1077 43.9962 35.6069 44.2876 35.6069 44.2876C35.6069 44.2876 36.2828 44.2876 36.1952 44.6605C36.1545 44.8932 35.0302 45.5222 34.2787 45.8544C33.5157 46.1865 33.5449 46.1692 33.172 46.2272C32.8107 46.2856 31.8203 46.112 31.6164 46.4019C31.4125 46.6919 31.5012 46.9906 31.558 47.0371C31.6164 47.0778 32.0883 47.1362 32.0883 47.1362C32.0883 47.1362 31.9893 47.4099 31.0108 47.4391C30.0324 47.4683 29.7874 47.5378 29.729 47.643C29.6707 47.7417 29.9153 47.6837 30.3642 47.7582C30.8127 47.8281 31.4417 47.8734 31.4417 47.8734C31.4417 47.8734 31.2378 48.0482 30.7079 48.1879C30.1019 48.345 29.1523 48.4909 28.867 48.6656C29.0125 48.7647 29.2283 48.9102 29.3278 48.9218C29.0832 48.9801 28.7391 49.1084 28.6811 49.1548C28.7683 49.2132 28.885 49.2831 28.885 49.2831C28.885 49.2831 28.3954 49.8714 28.1101 50.0173C27.8248 50.1632 26.182 50.9258 25.6168 50.7803C24.2071 50.4074 24.0324 48.8638 23.6887 48.7474C23.1703 48.5727 22.9257 48.9218 22.4653 48.6771C22.6692 48.5316 22.7802 48.4444 22.9956 48.3454C22.7625 48.2302 21.5568 47.4656 21.5568 47.4656C21.4307 47.1908 21.2907 46.9225 21.1374 46.6619C20.9043 46.2599 20.5614 45.7238 20.3042 45.2519C19.745 44.2151 19.7159 43.7374 19.209 43.1491C19.2965 43.0339 19.5991 43.05 19.5991 43.05L23.8462 44.4482L31.3768 44.6663L33.3352 41.8704L34.1681 41.9694L34.1677 41.969Z" fill="#DFC677"/>
<path fill-rule="evenodd" clip-rule="evenodd" d="M23.0137 46.2328C23.0591 46.2834 23.1121 46.3266 23.1707 46.3611C23.3166 46.4601 23.5321 46.5769 23.6776 46.7512C23.736 46.664 23.8815 46.5066 24.1384 46.7512C24.3953 46.9958 24.7144 46.8215 24.9129 46.8795C25.1168 46.9497 25.1284 46.9785 25.1284 46.9785C25.1284 46.9785 25.2436 46.8795 25.5012 46.7746C25.6587 46.7163 25.8449 46.6756 26.0488 46.6176C26.235 46.5769 26.439 46.5185 26.5791 46.5185C26.7074 46.6057 27.1674 47.0945 29.0141 46.373C30.7559 45.6971 31.1575 45.6215 31.449 45.7259C31.4782 45.656 31.5074 45.522 31.9559 45.5397C31.9559 45.3534 31.583 44.7183 31.583 44.7183L29.5267 44.0137H28.402L25.0293 44.6311L23.1604 45.6975L23.0148 46.2351L23.0137 46.2328Z" fill="#C4A859"/>
<path fill-rule="evenodd" clip-rule="evenodd" d="M21.8887 45.0506C21.8887 45.0506 21.9294 45.3651 22.3956 45.6972C22.8564 46.029 23.0011 46.2272 23.0011 46.2272C23.0011 46.2272 23.0887 46.112 23.1586 45.9945C23.2284 45.8662 23.2868 45.7207 23.4032 45.68C23.6363 45.5809 24.1662 45.7671 24.2829 45.7379C24.382 45.7091 24.3528 45.5052 24.4576 45.5052C24.7022 45.4933 24.8593 45.6623 24.9468 45.6623C25.0344 45.6623 25.2494 45.6508 25.2786 45.6043C25.3078 45.5578 25.3193 45.074 25.6515 44.8409C26.0128 44.5848 26.4556 44.6954 26.5731 44.7538C26.5731 44.8409 26.5846 45.0567 26.8177 45.0682C27.0508 45.0798 27.0738 45.0391 27.2785 45.109C27.4832 45.1788 27.727 45.0974 27.8376 45.4407C27.9367 45.4119 28.1698 45.3827 28.1114 45.0506C28.2266 44.9634 28.3272 44.905 28.5722 44.5614C28.6306 44.4742 28.7292 44.3751 28.8053 44.2469C29.0092 44.2469 29.2538 44.2062 29.5798 44.4915C29.4807 44.5614 29.4224 44.6067 29.3936 44.6777C29.4788 44.7621 29.5567 44.8538 29.6263 44.9515C29.7138 45.0667 29.7722 45.208 29.8828 45.2372C30.1274 45.3071 30.5294 45.208 30.978 45.2372C31.4092 45.2664 31.7701 45.4234 31.9276 45.5225C31.986 45.4937 31.986 45.4818 32.1315 45.511C32.277 45.5402 32.3876 45.5517 32.2306 45.3655C32.3177 45.4062 32.4168 45.4937 32.5044 45.4062C32.5919 45.3186 32.6614 45.1907 32.906 45.1616C33.1506 45.1324 33.2382 45.1731 33.3372 44.917C33.4655 44.6025 33.0228 44.6025 33.0228 44.6025C33.0228 44.6025 33.2267 44.4158 33.454 44.1712C33.7278 43.9151 34.0423 43.5829 34.1179 43.1751C34.2462 42.4236 33.5124 42.325 33.5124 42.325L29.9531 43.4201L25.6016 43.2043L21.891 45.051L21.8887 45.0506Z" fill="#927D49"/>
<path fill-rule="evenodd" clip-rule="evenodd" d="M18.6898 34.7691C18.6898 34.7691 18.5746 34.9146 18.5035 35.2583C18.4325 35.602 18.4628 35.5613 18.4045 35.8059C18.3461 36.0505 17.6292 38.4854 17.898 39.3068C18.1668 40.1282 18.6322 40.4312 18.9232 41.0951C18.9816 41.2406 19.0384 41.3282 19.0688 41.4564C19.1679 41.8873 19.0807 42.2195 19.197 42.6507C19.2377 42.7962 19.343 42.9652 19.5 43.1399C19.8456 43.5009 20.4089 43.8445 20.652 44.0891C20.9953 44.4505 21.4849 45.1847 22.1081 45.2542C22.4403 45.2949 22.9122 45.1551 23.3024 44.9224C23.648 44.7066 23.8615 44.404 24.224 44.2312C24.4801 44.103 24.7539 44.0565 24.9985 43.9981C25.5054 43.8991 25.9658 43.8829 26.2396 43.9398C26.6589 44.0273 27.6493 44.3303 28.198 44.3303C28.6268 44.3234 29.0532 44.2647 29.4679 44.1556C30.3008 43.911 31.3084 43.4913 31.9727 43.305C32.3629 43.1898 32.6774 43.1595 32.998 43.0896C33.5456 42.9613 34.0056 42.7866 34.2679 42.4545C34.0932 42.2506 33.8777 41.9361 32.7123 41.9476C31.3902 41.9768 29.8638 42.7106 29.1123 42.8273C28.3608 42.9441 28.0348 43.0427 27.1958 42.7398C26.3732 42.4337 26.346 42.2314 26.346 42.2314C26.346 42.2314 25.4824 41.6273 25.121 40.0875C24.7597 38.5476 25.121 37.4256 26.0591 36.3592C26.3037 36.0854 26.2454 35.8408 26.2454 35.8408C26.2454 35.8408 26.8628 35.0079 26.6939 34.228C26.5076 33.4531 25.3134 33.6106 25.3134 33.6106L18.6902 34.7691H18.6898Z" fill="#6E6342"/>
<path fill-rule="evenodd" clip-rule="evenodd" d="M19.682 37.3612C19.6307 37.4578 19.6065 37.5665 19.6121 37.6757C19.6236 37.8328 19.6705 38.0367 20.142 38.4971C20.5441 38.8987 20.4565 39.3473 20.4565 39.3473C20.4565 39.3473 20.6589 39.388 21.208 39.1311C21.6393 38.9272 21.784 39.2885 21.784 39.2885C21.9096 39.2227 22.0456 39.1793 22.1861 39.1602C22.3133 39.1485 22.4365 39.1092 22.547 39.045C22.547 39.045 23.0539 39.5634 23.4967 39.8081C23.8987 40.0239 24.1318 40.1694 24.33 40.0239C24.5162 39.8956 24.5162 39.6333 24.5043 39.517C24.4581 39.4096 24.3996 39.3079 24.33 39.214C24.2017 39.0278 23.9978 38.812 23.9844 38.638C23.9552 38.2363 24.2873 37.7583 24.2171 37.6419C24.1468 37.5256 23.8853 37.4964 23.2386 37.7295C22.5689 37.9506 19.6793 37.3624 19.6793 37.3624L19.682 37.3612Z" fill="#39331F"/>
<path fill-rule="evenodd" clip-rule="evenodd" d="M21.2109 39.9652C21.2109 39.9652 20.8791 39.6507 20.9954 38.1243C21.1363 38.1223 21.2769 38.1359 21.4148 38.1651C21.4148 38.1651 21.5956 39.3478 21.2109 39.9652Z" fill="#292311"/>
<path fill-rule="evenodd" clip-rule="evenodd" d="M18.8473 33.6038C18.8936 33.5696 18.9365 33.531 18.9756 33.4886C18.8604 33.704 18.3285 34.5661 18.7598 35.9236C19.191 37.2749 20.2743 38.2825 21.6083 38.3293C22.9423 38.3762 23.6435 37.7234 24.4453 36.7449C24.7598 36.3548 25.1211 35.8652 25.4414 35.5334C25.9191 35.0146 26.2919 34.8691 26.2919 34.3684C26.2919 33.3431 25.2432 32.8827 23.6995 32.4226C22.1559 31.9626 20.7635 32.0194 20.0412 32.3343C19.3365 32.6776 19.0335 33.039 18.8469 33.6042L18.8473 33.6038Z" fill="#252211"/>
<path fill-rule="evenodd" clip-rule="evenodd" d="M23.8039 40.4251L23.9191 40.3667C23.9191 40.3667 23.9479 39.9059 24.1345 39.9182C24.3208 39.9474 24.4083 40.1924 24.3906 40.2796C24.3791 40.3667 24.3327 40.5126 24.146 40.495C23.9014 40.5007 23.8027 40.4251 23.8027 40.4251H23.8039Z" fill="#3F3824"/>
<path fill-rule="evenodd" clip-rule="evenodd" d="M23.2871 38.4678C23.2871 38.4678 23.4023 38.4271 23.5432 38.5669C23.6584 38.5669 24.1607 38.5085 24.3182 38.6076C24.4756 38.7066 24.5221 38.7938 24.5221 38.7938C24.5221 38.7938 23.9338 38.9221 23.6131 38.7938C23.2871 38.6832 23.2871 38.4678 23.2871 38.4678H23.2871Z" fill="#2D2815"/>
<path fill-rule="evenodd" clip-rule="evenodd" d="M25.8764 38.5554C25.8764 38.5262 25.5619 38.3108 25.2297 38.2405C25.1713 38.229 25.1594 38.2697 25.1145 38.2697C25.0853 38.2582 25.0738 38.1707 25.0738 38.1707L24.8849 38.2701C24.8849 38.2701 24.8557 38.3108 24.9548 38.3853C25.0419 38.4552 25.1878 38.5136 25.2286 38.6299C25.2693 38.7463 25.2693 38.787 25.2869 38.8046C25.2984 38.8162 25.5023 38.8046 25.6014 38.7463C25.7005 38.6879 25.8871 38.5927 25.8752 38.5543L25.8764 38.5554Z" fill="#82764F"/>
<path fill-rule="evenodd" clip-rule="evenodd" d="M22.9336 39.7379C22.9336 39.7379 22.9916 39.3362 23.3821 39.3186C23.7838 39.2894 23.8598 39.6795 23.8598 39.6795L23.6267 39.9126C23.6267 39.9069 23.452 39.6623 22.9355 39.7379H22.9336Z" fill="#2D2816"/>
<path fill-rule="evenodd" clip-rule="evenodd" d="M25.4673 38.0077C25.4673 38.0077 25.2515 38.2408 24.7742 38.3107C24.7335 38.2523 24.6459 38.1359 24.7742 37.9497C24.9025 37.7635 25.048 37.7051 25.1935 37.7631C25.3246 37.7843 25.4315 37.8798 25.4673 38.0077Z" fill="#574F35"/>
<path fill-rule="evenodd" clip-rule="evenodd" d="M26.3467 38.2935C26.3586 38.2352 26.3179 38.2236 26.3467 38.1945C26.3755 38.1653 26.5334 38.1073 26.5625 38.1361C26.5741 38.148 26.5625 38.1945 26.5625 38.2513C26.5625 38.3081 26.5625 38.3665 26.5334 38.4083C26.4927 38.4667 26.3763 38.4959 26.3179 38.4786C26.2596 38.4613 26.248 38.3795 26.248 38.3634C26.2768 38.3519 26.3467 38.3227 26.3467 38.2935ZM27.3463 37.6642C27.3463 37.635 27.4453 37.5767 27.5037 37.5767C27.5909 37.5767 27.5909 37.6465 27.6028 37.6642C27.6316 37.6757 27.6316 37.6523 27.6608 37.7049C27.6899 37.7575 27.731 37.8505 27.7015 37.9088C27.6719 37.9672 27.5559 38.0075 27.5271 37.996C27.4864 37.9668 27.3582 37.7049 27.3463 37.6642Z" fill="#82764F"/>
<path fill-rule="evenodd" clip-rule="evenodd" d="M25.3438 38.4271C25.3438 38.4271 25.472 38.4559 25.6467 38.6019C25.5884 38.6426 25.5008 38.689 25.5008 38.689C25.5008 38.689 25.4893 38.555 25.3438 38.4268V38.4271Z" fill="#6E6342"/>
<path fill-rule="evenodd" clip-rule="evenodd" d="M25.0534 37.1456C25.0242 37.1168 25.1406 37.0469 25.2105 37.0584C25.2804 37.0699 25.3096 37.1168 25.3852 37.1283C25.4609 37.1398 25.4728 37.0991 25.5004 37.0699C25.5281 37.0407 25.6287 37.0584 25.6459 37.0699C25.6567 37.0827 25.6665 37.0963 25.6751 37.1106C25.6776 37.0658 25.6986 37.0241 25.7331 36.9954C25.7784 36.9622 25.8364 36.9514 25.8906 36.9663C25.9021 37.007 25.9604 37.1525 25.9489 37.1817C25.9374 37.2109 25.7627 37.2519 25.7331 37.2224C25.7623 37.2927 25.8906 37.4382 25.9078 37.467C25.9251 37.4958 25.7796 37.5661 25.7216 37.5545C25.6402 37.5488 25.1391 37.2573 25.0519 37.1467L25.0534 37.1456ZM25.8176 36.1784C25.8068 36.149 25.7862 36.1243 25.7593 36.1085C25.7186 36.097 25.5845 36.1085 25.5845 36.1784C25.5845 36.2483 25.6997 36.6392 25.8291 36.8427C25.9751 37.0466 26.0738 37.2152 26.1728 37.262C26.2374 37.2914 26.3136 37.2659 26.3475 37.2037C26.3591 37.1745 26.3883 36.959 26.3767 36.4522C26.3652 35.9453 26.3475 35.4561 26.3184 35.4269C26.2892 35.3977 26.1728 35.3981 26.1321 35.4561C26.0914 35.5141 25.8291 36.0912 25.8172 36.1784H25.8176Z" fill="#585136"/>
<path fill-rule="evenodd" clip-rule="evenodd" d="M25.2976 39.161C25.2976 39.161 25.0937 39.0328 24.8956 39.1203C24.7093 39.2079 24.7208 39.5515 24.7208 39.5515C24.8059 39.5848 24.9019 39.5739 24.9774 39.5224C25.1056 39.4352 25.2684 39.2896 25.2976 39.1614V39.161Z" fill="#574F35"/>
<path fill-rule="evenodd" clip-rule="evenodd" d="M25.6875 39.6218C25.6759 39.5066 25.5723 39.5066 25.5723 39.4471C25.587 39.3885 25.6398 39.3476 25.7001 39.348C25.7585 39.348 25.8153 39.4179 25.8868 39.4632C25.9566 39.5039 26.0615 39.5784 26.073 39.6671C26.0845 39.7558 25.9578 39.9989 25.8169 39.9989C25.6759 39.9989 25.7178 39.7366 25.6886 39.6202L25.6875 39.6218ZM26.8068 39.4642C26.8068 39.4642 26.5738 39.5341 26.591 39.4642C26.6083 39.3943 26.6613 39.377 26.737 39.377C26.7754 39.3368 26.8271 39.3118 26.8825 39.3067C26.9142 39.3052 26.9453 39.3156 26.9697 39.3359C26.9697 39.3359 27.1271 39.266 27.1736 39.3067C27.22 39.3474 27.1855 39.3474 27.2143 39.3943C27.2509 39.4463 27.275 39.5061 27.2845 39.569C27.2845 39.6155 27.1098 39.7145 26.9697 39.6973C26.8068 39.6623 26.8356 39.4934 26.8068 39.4642ZM28.1668 39.2021C28.1668 39.2021 28.2366 39.2428 28.1787 39.2897C28.138 39.3304 27.9341 39.4049 27.759 39.4179C27.5842 39.4179 27.4272 39.4467 27.4272 39.3887C27.4272 39.3308 27.5727 39.214 27.6599 39.1848C27.6953 39.1405 27.749 39.1147 27.8058 39.115C27.8757 39.115 28.1491 39.0858 28.2251 39.0742C28.295 39.0623 28.3534 39.103 28.3123 39.1614C28.295 39.2021 28.1668 39.2021 28.1668 39.2021ZM28.5643 37.4035C28.5643 37.4035 28.4767 37.5897 28.378 37.5897C28.279 37.5782 28.279 37.549 28.279 37.5199C28.279 37.4791 28.378 37.3743 28.3661 37.3451C28.3373 37.3451 28.2671 37.3451 28.279 37.2752C28.279 37.2169 28.378 37.147 28.4652 37.16C28.5311 37.1059 28.6131 37.0753 28.6983 37.0729C28.7974 37.0729 28.8845 37.1017 28.8845 37.16C28.8845 37.2184 28.7693 37.3463 28.7271 37.3759C28.6806 37.4223 28.6223 37.4527 28.5643 37.4047V37.4035ZM27.241 40.8459C27.241 40.8459 27.1258 40.8578 27.1258 40.9158C27.1258 40.945 27.1546 40.945 27.1957 40.9277C27.2194 40.9264 27.2428 40.9224 27.2656 40.9158C27.2771 40.9277 27.2771 40.9857 27.3647 40.9857C27.4366 40.976 27.5059 40.9522 27.5686 40.9158C27.6385 40.887 27.6968 40.8574 27.6968 40.8006C27.6677 40.7015 27.6093 40.6547 27.5221 40.6547C27.4775 40.6518 27.4329 40.662 27.3939 40.6839C27.3939 40.6839 27.3647 40.6255 27.2656 40.6839C27.1665 40.7422 27.1781 40.7422 27.2072 40.7714C27.2595 40.8179 27.2422 40.8482 27.2422 40.8482L27.241 40.8459ZM26.581 41.4518C26.581 41.4226 26.7265 41.3643 26.7672 41.3819C26.8079 41.3935 26.9243 41.6146 26.9243 41.6381C26.9243 41.6673 26.7788 41.7371 26.7204 41.7371C26.662 41.7371 26.5633 41.6381 26.5633 41.6219C26.5633 41.6104 26.6332 41.5931 26.6332 41.5812C26.6505 41.5524 26.581 41.4822 26.581 41.453V41.4518ZM26.1176 40.6014C26.1467 40.5899 26.1467 40.5607 26.1875 40.5316C26.2133 40.5144 26.2456 40.5101 26.275 40.52C26.2958 40.4829 26.3322 40.4571 26.3741 40.4498C26.444 40.4382 26.5023 40.4498 26.4893 40.479C26.4893 40.5665 26.5476 40.6245 26.5476 40.6944C26.5476 40.7643 26.5069 40.8518 26.3614 40.9102C26.2159 40.9509 26.0177 40.9509 25.9885 40.9394C25.9594 40.9278 25.9302 40.8111 25.9594 40.7527C25.9885 40.6944 26.0699 40.6306 26.1168 40.6014H26.1176Z" fill="#82764F"/>
<path fill-rule="evenodd" clip-rule="evenodd" d="M26.3042 40.6407C26.3042 40.6407 26.2051 40.6991 26.2051 40.7283C26.1963 40.7565 26.1924 40.786 26.1936 40.8155C26.1936 40.8327 26.3218 40.8039 26.3391 40.7863C26.3449 40.7748 26.3042 40.6711 26.3042 40.6407Z" fill="#6E6342"/>
<path fill-rule="evenodd" clip-rule="evenodd" d="M25.4407 40.367C25.4987 40.3789 25.5978 40.367 25.6734 40.3962C25.7318 40.4254 25.7725 40.4837 25.7141 40.5536C25.6558 40.6235 25.5989 40.7283 25.4695 40.7107C25.324 40.6992 25.1842 40.6235 25.1842 40.5651C25.1793 40.4906 25.2044 40.4171 25.2541 40.3612C25.3125 40.3148 25.3413 40.344 25.4403 40.367H25.4407Z" fill="#585136"/>
<path fill-rule="evenodd" clip-rule="evenodd" d="M25.3697 40.4252C25.3697 40.4252 25.1835 40.5707 25.1366 40.641C25.0783 40.7109 24.7929 41.0718 24.7058 41.1475C24.7347 41.0964 24.7677 41.0477 24.8045 41.0019C24.6893 41.0756 24.6029 41.1866 24.5599 41.3164C24.49 41.5322 24.9504 41.6486 25.253 41.7361C25.5556 41.8237 25.6727 41.8513 25.6727 41.8513C25.5613 41.6839 25.4656 41.5065 25.387 41.3214C25.2718 41.0476 25.2123 41.0185 25.2879 40.8902C25.3463 40.7619 25.4338 40.6748 25.4338 40.5757C25.3989 40.4835 25.3697 40.4252 25.3697 40.4252Z" fill="#574F35"/>
<path fill-rule="evenodd" clip-rule="evenodd" d="M18.7293 40.8855C18.7717 40.8933 18.8151 40.8933 18.8575 40.8855C18.9447 40.8736 19.8536 40.5399 20.8033 40.5998C21.5142 40.6428 22.2188 40.7586 22.9061 40.9454C24.1003 41.2599 25.5856 41.8832 26.5468 42.2388C26.8029 42.3374 27.0536 42.5125 27.238 42.5821C27.9722 42.8677 28.001 42.8677 28.4322 42.9434C28.9391 43.0133 29.4575 42.8443 29.9993 42.728C30.6632 42.5821 31.7991 42.5122 32.7952 42.3666C33.1173 42.322 33.435 42.2499 33.7448 42.1512C33.7448 42.1512 32.9526 42.9434 31.0534 43.2287C30.2857 43.3453 29.5056 43.3551 28.7352 43.2579C28.1292 43.1995 27.7276 43.112 27.4246 43.0248C27.0809 42.9257 26.3759 42.6635 25.508 42.4488C24.9021 42.2914 24.2262 42.175 23.4517 42.0295C21.5409 41.6797 19.4673 41.278 18.7285 40.8878L18.7293 40.8855Z" fill="#252211"/>
<path fill-rule="evenodd" clip-rule="evenodd" d="M16.5855 37.2859C16.1247 37.676 15.6359 38.0489 15.1586 38.4099L13.7197 39.5154C13.2305 39.8764 12.7528 40.2492 12.2632 40.6106C11.7736 40.9719 11.2848 41.3152 10.7656 41.6474C11.2264 41.2572 11.7153 40.8959 12.2045 40.5407C12.6937 40.1855 13.201 39.8372 13.6729 39.477L15.1117 38.3699C15.6067 38.009 16.0844 37.6361 16.5855 37.2867V37.2859ZM14.0406 41.3635C14.0406 41.3635 14.559 40.9323 15.2056 40.3267C16.0093 39.5756 16.9939 38.6141 17.3084 38.4398L14.0402 41.3639L14.0406 41.3635Z" fill="#CFB66C"/>
<path fill-rule="evenodd" clip-rule="evenodd" d="M14.0391 41.3633C14.2956 41.1072 14.5694 40.8568 14.8432 40.6118L15.2625 40.2509C15.3907 40.1357 15.5367 40.0063 15.6645 39.878C15.9207 39.6219 16.1714 39.3477 16.4275 39.0858C16.5545 38.9541 16.6887 38.8296 16.8296 38.7129C16.9 38.6506 16.9782 38.5977 17.0623 38.5555C17.1326 38.5148 17.2082 38.4403 17.3069 38.4272C17.2489 38.5148 17.179 38.5555 17.1207 38.6311C17.0508 38.6895 16.9924 38.7594 16.9344 38.8174C16.8062 38.9456 16.6606 39.062 16.5324 39.1787C16.2586 39.4118 15.9733 39.6395 15.6995 39.8834C15.4257 40.1272 15.1696 40.3903 14.8954 40.6349C14.5986 40.8856 14.3248 41.1302 14.0391 41.3645V41.3633ZM17.5271 39.0333C17.5271 39.0333 15.6283 40.8918 15.2377 41.1944L17.5271 39.0333Z" fill="#CFB66C"/>
<path fill-rule="evenodd" clip-rule="evenodd" d="M17.5277 39.0328C17.3569 39.2306 17.1737 39.4173 16.9793 39.5919L16.4033 40.1395C16.2171 40.3258 16.042 40.5124 15.8442 40.6986C15.6403 40.8733 15.4541 41.0442 15.2383 41.2055L15.7974 40.6579C15.984 40.4717 16.1879 40.3146 16.3861 40.128L16.9452 39.5804C17.1372 39.3884 17.3238 39.2018 17.5277 39.0328ZM17.6137 40.0406C17.4387 40.5292 17.2324 41.0059 16.9962 41.468C16.507 42.4468 15.7732 43.6698 15.4526 44.2935L17.6137 40.0406Z" fill="#CFB66C"/>
<path fill-rule="evenodd" clip-rule="evenodd" d="M17.6085 40.041C17.6085 40.2564 17.5501 40.4431 17.4803 40.6293C17.4121 40.8157 17.3345 40.9985 17.2476 41.1769C17.16 41.3516 17.0609 41.5382 16.9619 41.7072C16.8628 41.8762 16.7464 42.0505 16.6589 42.2256L16.0706 43.2624C15.8667 43.608 15.6685 43.9555 15.4531 44.2877C15.5987 43.9148 15.7968 43.5654 15.9834 43.2217C16.1873 42.8761 16.3736 42.5305 16.5594 42.173C16.6502 41.9948 16.7318 41.8122 16.804 41.6258C16.8912 41.4392 16.9784 41.2644 17.0486 41.0955C17.1358 40.9092 17.2057 40.7341 17.2933 40.5656C17.3919 40.3847 17.4737 40.21 17.6077 40.041L17.6085 40.041Z" fill="#CFB66C"/>
<path fill-rule="evenodd" clip-rule="evenodd" d="M19.6865 44.8176C19.6865 44.8176 19.1105 45.5806 19.1681 46.5475C19.3252 46.041 19.5233 45.2661 19.6865 44.8176ZM20.2334 45.5827C20.2334 45.5827 20.0294 47.6563 19.8605 48.6758C20.0993 47.4973 20.1458 47.5964 20.2334 45.5827ZM24.0483 48.7981C24.0483 48.7981 23.1862 51.3325 23.1685 52.0367C23.3551 51.3125 23.7161 49.8329 24.0483 48.7961V48.7981Z" fill="#DEC270"/>
<path fill-rule="evenodd" clip-rule="evenodd" d="M26.0664 44.6608C26.0664 44.6608 27.4646 46.9675 28.5133 48.9362C28.2295 47.9455 27.5767 46.1284 26.0664 44.6608Z" fill="#CBAF59"/>
<path fill-rule="evenodd" clip-rule="evenodd" d="M29.8242 48.0566C30.5919 49.4136 31.2841 50.8118 31.8978 52.2449C31.7815 51.2546 31.4666 49.5596 29.8242 48.0566Z" fill="#E3C677"/>
<path fill-rule="evenodd" clip-rule="evenodd" d="M40.8682 51.4575C41.1009 51.312 41.5613 50.5194 41.9633 50.3216C42.365 50.1177 42.668 50.077 43.0293 49.675C43.3903 49.2553 43.4901 48.9991 44.2815 48.6674C45.3886 48.1893 44.6271 47.5718 44.6271 47.5718C44.7491 47.452 44.8795 47.3412 45.0173 47.24C45.303 47.0246 45.6348 46.7623 45.606 46.3019C45.5653 45.5274 45.4197 44.403 44.7846 43.7506C45.4021 43.6224 46.5844 43.5352 47.319 43.349C48.1692 43.1332 48.5597 42.8302 48.5597 42.8302C48.5597 42.8302 48.0705 41.9973 48.8627 41.1586C49.6549 40.32 50.3015 39.8189 50.7792 38.8807C50.2316 38.8109 49.3968 38.5198 47.2664 39.3293C47.3814 39.3834 47.4924 39.4456 47.5985 39.5155C47.5985 39.5155 46.2879 39.8768 45.8103 40.2789C44.977 40.9835 44.8721 41.5603 43.9694 41.9915C43.0666 42.4228 42.1576 42.306 41.4065 42.6555C40.6554 43.0049 40.5445 43.3021 40.2703 43.4304C40.3287 43.5003 40.2588 43.6166 40.3694 43.7157C40.2995 43.8148 39.8917 44.4787 39.4781 44.4787C39.5188 44.6361 39.8682 44.7525 39.8682 44.7525C39.8682 44.7525 39.6121 44.9391 38.9597 44.9856C39.2915 45.3312 39.6063 45.7079 40.4742 46.2555C40.4043 46.401 40.1128 46.6168 40.2296 46.8906C40.3578 47.1644 40.6904 47.5373 42.0179 47.8402C41.342 47.869 40.5502 48.0265 39.4835 47.8809C38.4175 47.7527 38.2428 47.677 37.5846 47.8402C37.6545 47.9101 37.8407 47.9101 38.0039 48.0964C37.8292 48.1079 36.734 47.9681 36.3612 48.4577C35.971 48.9642 35.8021 49.7975 35.8312 50.3566C35.6273 50.4557 35.4292 50.6304 35.5283 50.9917C35.6273 51.3531 36.1457 51.4694 36.4779 51.6964C36.8097 51.941 36.8389 52.0281 37.1537 51.9701C37.4855 51.9003 37.9747 51.5685 38.2604 51.5685C38.5461 51.5685 38.7496 51.7839 38.7496 51.7839C38.7496 51.7839 39.5246 51.411 39.6002 51.4809C39.6701 51.5508 39.6117 51.9993 39.6874 52.0692C39.7642 52.1218 40.637 51.6034 40.8701 51.4575H40.8682Z" fill="#ECD592"/>
</g>
<defs>
<filter id="filter0_d_1053_117225" x="0" y="0" width="76" height="76" filterUnits="userSpaceOnUse" color-interpolation-filters="sRGB">
<feFlood flood-opacity="0" result="BackgroundImageFix"/>
<feColorMatrix in="SourceAlpha" type="matrix" values="0 0 0 0 0 0 0 0 0 0 0 0 0 0 0 0 0 0 127 0" result="hardAlpha"/>
<feOffset dy="1"/>
<feGaussianBlur stdDeviation="1"/>
<feColorMatrix type="matrix" values="0 0 0 0 0 0 0 0 0 0 0 0 0 0 0 0 0 0 0.04 0"/>
<feBlend mode="normal" in2="BackgroundImageFix" result="effect1_dropShadow_1053_117225"/>
<feBlend mode="normal" in="SourceGraphic" in2="effect1_dropShadow_1053_117225" result="shape"/>
</filter>
</defs>
</svg>
