<svg width="20" height="20" viewBox="0 0 20 20" fill="none" xmlns="http://www.w3.org/2000/svg">
  <g clip-path="url(#clip0_2609_2639)">
    <path d="M19.805 10.2302C19.805 9.55044 19.7499 8.86699 19.6323 8.19824H10.2V12.0491H15.6014C15.3773 13.291 14.6571 14.3897 13.6025 15.0878V17.5864H16.825C18.7173 15.8448 19.805 13.2726 19.805 10.2302Z" fill="#4285F4"/>
    <path d="M10.1999 20.0008C12.897 20.0008 15.1714 19.1152 16.8286 17.5867L13.6061 15.088C12.7096 15.698 11.5521 16.0434 10.2036 16.0434C7.59474 16.0434 5.38272 14.2833 4.58904 11.917H1.26367V14.4928C2.96127 17.8696 6.41892 20.0008 10.1999 20.0008Z" fill="#34A853"/>
    <path d="M4.5854 11.9172C4.16651 10.6753 4.16651 9.33044 4.5854 8.08848V5.5127H1.2637C-0.154633 8.33834 -0.154633 11.6674 1.2637 14.493L4.5854 11.9172Z" fill="#FBBC04"/>
    <path d="M10.1999 3.95805C11.6256 3.936 13.0035 4.47247 14.036 5.45722L16.8911 2.60218C15.0833 0.904587 12.6838 -0.0287217 10.1999 0.000673888C6.41892 0.000673888 2.96126 2.13185 1.26367 5.51234L4.58537 8.08813C5.37537 5.71811 7.59106 3.95805 10.1999 3.95805Z" fill="#EA4335"/>
  </g>
  <defs>
    <clipPath id="clip0_2609_2639">
      <rect width="20" height="20" rx="10" fill="white"/>
    </clipPath>
  </defs>
</svg>
