<svg width="40" height="40" viewBox="0 0 40 40" fill="none" xmlns="http://www.w3.org/2000/svg">
<rect width="40" height="40" rx="10" fill="url(#paint0_linear_2222_59130)"/>
<path d="M32.668 12.0897C33.5082 23.4701 26.1924 28.849 19.6339 29.4226C13.5364 29.9558 7.79699 26.2095 7.29348 20.4534C6.87813 15.698 9.81743 13.6734 12.1268 13.4716C14.5021 13.2634 16.4981 14.9013 16.6712 16.8845C16.838 18.7911 15.6482 19.6589 14.8207 19.7311C14.1664 19.7885 13.3431 19.3912 13.2688 18.5383C13.205 17.8054 13.4833 17.7055 13.4153 16.927C13.2942 15.5408 12.0854 15.3793 11.4236 15.4367C10.6226 15.5068 9.16945 16.4415 9.3734 18.7699C9.57842 21.1184 11.8304 22.974 14.7825 22.7159C17.9682 22.4376 20.1863 19.9574 20.353 16.4787C20.3515 16.2945 20.3903 16.1121 20.4667 15.9444L20.4678 15.9402C20.5021 15.8673 20.5422 15.7973 20.5878 15.7309C20.6558 15.6289 20.7429 15.5164 20.8555 15.3931C20.8566 15.39 20.8566 15.39 20.8587 15.39C20.9405 15.2975 21.0393 15.1977 21.1508 15.0904C22.5424 13.7775 27.5542 10.6812 32.294 11.6616C32.3942 11.6831 32.4847 11.7364 32.5521 11.8136C32.6195 11.8907 32.6602 11.9876 32.668 12.0897Z" fill="white"/>
<defs>
<linearGradient id="paint0_linear_2222_59130" x1="40" y1="-1.2219e-06" x2="-1" y2="40" gradientUnits="userSpaceOnUse">
<stop stop-color="#11C4D1"/>
<stop offset="1" stop-color="#0062AD"/>
</linearGradient>
</defs>
</svg>
