<svg width="40" height="40" viewBox="0 0 40 40" fill="none" xmlns="http://www.w3.org/2000/svg">
<rect width="40" height="40" rx="10" fill="#00CB6A"/>
<rect x="0.5" y="0.5" width="39" height="39" rx="9.5" stroke="#BEC0C2" stroke-opacity="0.16"/>
<path d="M26.0948 29.4711V25.7328C26.0948 24.3122 24.9733 23.1907 23.5528 23.1907H16.3752C14.9546 23.1907 13.8331 24.3122 13.8331 25.7328V29.4711C13.8331 30.8917 14.9546 32.0132 16.3752 32.0132H21.5341C21.5341 31.5646 21.3845 30.9665 20.6369 30.5179L21.6088 29.2468C21.6088 29.2468 23.0294 30.0693 23.1789 32.0132H23.5528C24.9733 32.0132 26.0948 30.8917 26.0948 29.4711ZM16.5995 27.8262C15.8518 27.8262 15.2537 27.2281 15.2537 26.4804C15.2537 25.7328 15.8518 25.1346 16.5995 25.1346C17.3472 25.1346 17.9453 25.7328 17.9453 26.4804C17.9453 27.3029 17.3472 27.8262 16.5995 27.8262ZM23.2537 27.8262C22.506 27.8262 21.9079 27.2281 21.9079 26.4804C21.9079 25.7328 22.506 25.1346 23.2537 25.1346C24.0014 25.1346 24.5995 25.7328 24.5995 26.4804C24.5995 27.3029 24.0014 27.8262 23.2537 27.8262Z" fill="white"/>
<path d="M28.3364 15.1158C28.5607 15.4148 28.6355 15.7139 28.6355 16.0877C28.6355 16.9849 27.8878 17.6579 26.9907 17.6579C26.0935 17.6579 25.4206 16.9102 25.4206 16.0877C24.5234 7.86333 16.0748 8.08764 16.0748 8.08764C16.0748 8.08764 17.7196 9.13438 17.7196 12.4989C17.7196 13.6204 17.5701 14.4429 17.271 15.1158C16.7477 16.4616 15.7757 16.9849 15.028 16.9849C14.8037 16.9849 14.5047 16.9102 14.2056 16.7606C13.3832 16.312 12.4112 15.041 13.757 13.2466C13.757 13.2466 8 16.5363 8 23.7888C8 31.0412 14.8037 32.3122 15.7009 32.3122C15.7009 32.3122 10.0187 31.3403 10.0187 25.0598C10.0187 21.7701 12.785 19.3027 14.1308 19.1532C14.5794 20.3495 15.7009 21.2467 17.0467 21.2467C18.7664 21.2467 20.1869 19.8261 20.1869 18.1812C20.1869 16.9849 19.514 15.8634 18.4673 15.4148C24.1495 15.1905 25.3458 19.9756 25.4953 20.6485C25.6449 21.3215 25.1963 22.3682 26.3178 22.3682C27.514 22.3682 27.2897 21.0224 27.2897 21.0224C28.5607 22.2934 29.3084 23.3402 29.3084 25.5084C29.3084 30.6674 24.5981 32.2375 24.5981 32.2375C26.1682 32.2375 32 30.144 32 23.8635C32 17.8822 28.5607 15.3401 28.3364 15.1158Z" fill="white"/>
</svg>
