<svg width="40" height="40" viewBox="0 0 40 40" fill="none" xmlns="http://www.w3.org/2000/svg">
<rect width="40" height="40" rx="10" fill="#00B812"/>
<path d="M21.8076 8.48071H16.2437L15.2676 11.4323H18.3579V17.6495H21.8076V8.48071Z" fill="white"/>
<path fill-rule="evenodd" clip-rule="evenodd" d="M26.345 25.1739C26.345 28.6784 23.5041 31.5193 19.9996 31.5193C16.4952 31.5193 13.6543 28.6784 13.6543 25.1739C13.6543 21.6695 16.4952 18.8285 19.9996 18.8285C23.5041 18.8285 26.345 21.6695 26.345 25.1739ZM23.4643 25.1739C23.4643 27.0874 21.9131 28.6386 19.9996 28.6386C18.0861 28.6386 16.535 27.0874 16.535 25.1739C16.535 23.2604 18.0861 21.7092 19.9996 21.7092C21.9131 21.7092 23.4643 23.2604 23.4643 25.1739Z" fill="white"/>
</svg>
