<svg width="76" height="76" viewBox="0 0 76 76" fill="none" xmlns="http://www.w3.org/2000/svg">
<g filter="url(#filter0_d_1053_117224)">
<g clip-path="url(#clip0_1053_117224)">
<circle cx="38" cy="37" r="36" fill="#8247E5"/>
<path d="M48.8016 29.7695C48.0339 29.328 47.047 29.328 46.1697 29.7695L40.0287 33.4122L35.8616 35.7303L29.8303 39.3731C29.0627 39.8146 28.0757 39.8146 27.1984 39.3731L22.483 36.503C21.7154 36.0615 21.1671 35.1784 21.1671 34.1849V28.6657C21.1671 27.7826 21.6057 26.8995 22.483 26.3476L27.1984 23.5879C27.9661 23.1464 28.953 23.1464 29.8303 23.5879L34.5457 26.4579C35.3133 26.8995 35.8616 27.7826 35.8616 28.776V32.4188L40.0287 29.9903V26.2372C40.0287 25.3541 39.5901 24.471 38.7128 23.9191L29.9399 18.7309C29.1723 18.2894 28.1854 18.2894 27.3081 18.7309L18.3159 24.0295C17.4386 24.471 17 25.3541 17 26.2372V36.6134C17 37.4965 17.4386 38.3796 18.3159 38.9315L27.1984 44.1197C27.9661 44.5612 28.953 44.5612 29.8303 44.1197L35.8616 40.5873L40.0287 38.1588L46.0601 34.6265C46.8277 34.1849 47.8146 34.1849 48.6919 34.6265L53.4073 37.3861C54.1749 37.8277 54.7232 38.7108 54.7232 39.7042V45.2235C54.7232 46.1066 54.2846 46.9897 53.4073 47.5416L48.8016 50.3013C48.0339 50.7428 47.047 50.7428 46.1697 50.3013L41.4543 47.5416C40.6867 47.1001 40.1384 46.217 40.1384 45.2235V41.6912L35.9713 44.1197V47.7624C35.9713 48.6455 36.4099 49.5286 37.2872 50.0805L46.1697 55.2686C46.9373 55.7102 47.9243 55.7102 48.8016 55.2686L57.6841 50.0805C58.4517 49.6389 59 48.7559 59 47.7624V37.2757C59 36.3927 58.5614 35.5096 57.6841 34.9576L48.8016 29.7695Z" fill="#EDF0F4"/>
</g>
<rect x="2.5" y="1.5" width="71" height="71" rx="35.5" stroke="#526279" stroke-opacity="0.1"/>
</g>
<defs>
<filter id="filter0_d_1053_117224" x="0" y="0" width="76" height="76" filterUnits="userSpaceOnUse" color-interpolation-filters="sRGB">
<feFlood flood-opacity="0" result="BackgroundImageFix"/>
<feColorMatrix in="SourceAlpha" type="matrix" values="0 0 0 0 0 0 0 0 0 0 0 0 0 0 0 0 0 0 127 0" result="hardAlpha"/>
<feOffset dy="1"/>
<feGaussianBlur stdDeviation="1"/>
<feColorMatrix type="matrix" values="0 0 0 0 0 0 0 0 0 0 0 0 0 0 0 0 0 0 0.04 0"/>
<feBlend mode="normal" in2="BackgroundImageFix" result="effect1_dropShadow_1053_117224"/>
<feBlend mode="normal" in="SourceGraphic" in2="effect1_dropShadow_1053_117224" result="shape"/>
</filter>
<clipPath id="clip0_1053_117224">
<rect x="2" y="1" width="72" height="72" rx="36" fill="white"/>
</clipPath>
</defs>
</svg>
