<svg width="40" height="40" viewBox="0 0 40 40" fill="none" xmlns="http://www.w3.org/2000/svg">
<g clip-path="url(#clip0_740_82131)">
<mask id="mask0_740_82131" style="mask-type:alpha" maskUnits="userSpaceOnUse" x="0" y="0" width="40" height="40">
<path d="M40 0H0V40H40V0Z" fill="#C4C4C4"/>
</mask>
<g mask="url(#mask0_740_82131)">
<path d="M40.6844 0H-1.05469V40H40.6844V0Z" fill="#2980FE"/>
<mask id="mask1_740_82131" style="mask-type:luminance" maskUnits="userSpaceOnUse" x="6" y="10" width="30" height="20">
<path d="M35.0175 10.8203H6.5625V29.1797H35.0175V10.8203Z" fill="white"/>
</mask>
<g mask="url(#mask1_740_82131)">
<path d="M15.8926 17.1346H15.8977C15.8926 17.1039 15.8926 17.0681 15.8926 17.0374V17.1346Z" fill="#29AEFF"/>
<path d="M26.0782 18.1068H20.4395V28.2843C20.4395 28.7652 20.8283 29.1542 21.3093 29.1542H25.2084C25.6894 29.1542 26.0782 28.7652 26.0782 28.2843V18.1068Z" fill="white"/>
<path d="M17.7173 10.8203H17.528H7.43238C6.95137 10.8203 6.5625 11.2092 6.5625 11.6902V15.2208C6.5625 15.7018 6.95137 16.0907 7.43238 16.0907H9.80148H10.743V17.1345V28.3098C10.743 28.7908 11.1319 29.1797 11.6129 29.1797H15.3175C15.7985 29.1797 16.1873 28.7908 16.1873 28.3098V17.1345V17.0373V16.0907H17.1289H17.5126H17.702C19.1552 16.0907 20.3371 14.9087 20.3371 13.4555C20.3525 12.0023 19.1705 10.8203 17.7173 10.8203Z" fill="white"/>
<path d="M26.084 18.1067V25.2089C26.2784 25.255 26.478 25.2908 26.6827 25.3215C26.9692 25.3624 27.266 25.388 27.5628 25.3931C27.5781 25.3931 27.5935 25.3931 27.6139 25.3931V19.7441C26.7594 19.6878 26.084 18.9765 26.084 18.1067Z" fill="url(#paint0_linear_740_82131)"/>
<path d="M27.7259 10.8203C23.704 10.8203 20.4395 14.0849 20.4395 18.1068C20.4395 21.5658 22.8495 24.4619 26.0834 25.209V18.1068C26.0834 17.2011 26.8202 16.4642 27.7259 16.4642C28.6316 16.4642 29.3684 17.2011 29.3684 18.1068C29.3684 18.8692 28.8516 19.5088 28.1455 19.693C28.0124 19.7288 27.8691 19.7493 27.7259 19.7493V25.3932C27.8691 25.3932 28.0073 25.3881 28.1455 25.383C31.9729 25.1629 35.0123 21.9905 35.0123 18.1068C35.0174 14.0849 31.7528 10.8203 27.7259 10.8203Z" fill="white"/>
<path d="M27.7251 25.3931V19.7491C27.6842 19.7491 27.6484 19.7491 27.6074 19.744V25.3931C27.6484 25.3931 27.6893 25.3931 27.7251 25.3931Z" fill="white"/>
</g>
</g>
</g>
<rect x="0.5" y="0.5" width="39" height="39" rx="9.5" stroke="#526279" stroke-opacity="0.1"/>
<defs>
<linearGradient id="paint0_linear_740_82131" x1="27.7289" y1="21.751" x2="26.0847" y2="21.751" gradientUnits="userSpaceOnUse">
<stop stop-color="white"/>
<stop offset="0.9667" stop-color="white" stop-opacity="0.3233"/>
<stop offset="1" stop-color="white" stop-opacity="0.3"/>
</linearGradient>
<clipPath id="clip0_740_82131">
<rect width="40" height="40" rx="10" fill="white"/>
</clipPath>
</defs>
</svg>
