<svg width="72" height="72" viewBox="0 0 72 72" fill="none" xmlns="http://www.w3.org/2000/svg">
<path d="M36 72C55.8823 72 72 55.8823 72 36C72 16.1177 55.8823 0 36 0C16.1177 0 0 16.1177 0 36C0 55.8823 16.1177 72 36 72Z" fill="#0364FF"/>
<path fill-rule="evenodd" clip-rule="evenodd" d="M21 24.4765C21 22.7559 22.3948 21.3611 24.1154 21.3611H32.7428H36.3721C38.0927 21.3611 39.4875 22.7559 39.4875 24.4765V28.1057L39.4874 28.1321V51.5232C39.4874 53.2438 38.0925 54.6386 36.372 54.6386H32.7428C31.0222 54.6386 29.6274 53.2438 29.6274 51.5232V31.2211H24.1154C22.3948 31.2211 21 29.8263 21 28.1057V24.4765ZM51.8157 26.2911C51.8157 29.0139 49.6084 31.2211 46.8857 31.2211C44.1629 31.2211 41.9557 29.0139 41.9557 26.2911C41.9557 23.5684 44.1629 21.3611 46.8857 21.3611C49.6084 21.3611 51.8157 23.5684 51.8157 26.2911Z" fill="white"/>
</svg>
