<svg width="40" height="40" viewBox="0 0 40 40" fill="none" xmlns="http://www.w3.org/2000/svg">
<rect width="40" height="40" rx="10" fill="#3375BB"/>
<rect x="0.5" y="0.5" width="39" height="39" rx="9.5" stroke="#BEC0C2" stroke-opacity="0.16"/>
<path fill-rule="evenodd" clip-rule="evenodd" d="M18.8286 8.02154C19.2941 7.63279 19.9711 7.63279 20.4366 8.02154C23.8466 10.8692 27.7347 10.8472 29.2393 10.8387C29.3144 10.8383 29.3835 10.8379 29.4463 10.8379C29.7823 10.8379 30.1042 10.9726 30.3399 11.2119C30.5757 11.4513 30.7055 11.7751 30.7005 12.111C30.6292 16.8305 30.4401 20.1989 30.0689 22.6676C29.6979 25.1348 29.129 26.8257 28.2124 28.0996C27.2892 29.3826 26.1027 30.111 24.8393 30.8092C24.6203 30.9302 24.3971 31.0513 24.1686 31.1752C23.0596 31.7767 21.8268 32.4454 20.3637 33.4949C19.9267 33.8083 19.3385 33.8083 18.9015 33.4949C17.4397 32.4464 16.2086 31.7781 15.1013 31.1769C14.8717 31.0523 14.6475 30.9306 14.4276 30.8089C13.1651 30.1105 11.9802 29.3819 11.0588 28.0985C10.1442 26.8245 9.57727 25.1337 9.20767 22.667C8.8378 20.1985 8.64949 16.8304 8.57827 12.111C8.5732 11.7751 8.70308 11.4513 8.93883 11.2119C9.17457 10.9726 9.49647 10.8379 9.8324 10.8379C9.89453 10.8379 9.96297 10.8383 10.0374 10.8387C11.5298 10.8472 15.4184 10.8694 18.8286 8.02154ZM11.1092 13.3385C11.1934 17.361 11.3765 20.2131 11.6885 22.2953C12.0325 24.5912 12.5172 25.8286 13.0966 26.6356C13.6693 27.4333 14.4209 27.9385 15.6419 28.614C15.8408 28.724 16.0505 28.8377 16.2708 28.9572C17.21 29.4664 18.3403 30.0793 19.6326 30.9487C20.9267 30.0782 22.0588 29.4649 22.9995 28.9552C23.2188 28.8364 23.4277 28.7232 23.6259 28.6137C24.8485 27.938 25.6018 27.4326 26.1761 26.6345C26.7569 25.8274 27.243 24.5901 27.5882 22.2946C27.9012 20.2128 28.0852 17.361 28.1695 13.3387C26.2385 13.2765 22.8377 12.8777 19.6326 10.5708C16.4314 12.875 13.0354 13.2755 11.1092 13.3385Z" fill="white"/>
</svg>
