<svg width="20" height="20" viewBox="0 0 20 20" fill="none" xmlns="http://www.w3.org/2000/svg">
  <circle cx="10" cy="10" r="10" fill="#1DA1F2"/>
  <path d="M7.94307 15.834C12.9745 15.834 15.7265 11.6655 15.7265 8.05056C15.7265 7.93216 15.7265 7.81429 15.7185 7.69696C16.2539 7.30971 16.7161 6.83023 17.0833 6.28096C16.5841 6.50229 16.0545 6.64738 15.5121 6.71136C16.0832 6.36952 16.5106 5.8318 16.7148 5.19829C16.1778 5.51696 15.5904 5.74153 14.9777 5.86229C14.5653 5.42373 14.0198 5.13332 13.4257 5.03601C12.8315 4.9387 12.2219 5.03991 11.6911 5.32399C11.1603 5.60807 10.7379 6.05917 10.4893 6.60749C10.2407 7.15581 10.1797 7.77077 10.3159 8.35723C9.22828 8.30267 8.16431 8.02002 7.19303 7.52763C6.22175 7.03524 5.36487 6.34411 4.678 5.49909C4.32818 6.10131 4.22104 6.81422 4.37839 7.49266C4.53574 8.1711 4.94575 8.76407 5.52493 9.15083C5.08957 9.13807 4.66369 9.02062 4.28333 8.80843V8.84309C4.28351 9.47468 4.50214 10.0868 4.90215 10.5755C5.30216 11.0643 5.85892 11.3996 6.478 11.5247C6.07527 11.6345 5.65271 11.6506 5.2428 11.5716C5.41767 12.1151 5.75802 12.5904 6.21624 12.931C6.67447 13.2716 7.22768 13.4606 7.79853 13.4714C7.23135 13.9172 6.58184 14.2468 5.88715 14.4414C5.19246 14.6359 4.46623 14.6916 3.75 14.6052C5.00102 15.408 6.45662 15.8338 7.94307 15.8319" fill="white"/>
</svg>
