<svg width="40" height="40" viewBox="0 0 40 40" fill="none" xmlns="http://www.w3.org/2000/svg">
  <g clip-path="url(#clip0_2520_78607)">
    <path d="M40 0H0V40H40V0Z" fill="black"/>
    <mask id="mask0_2520_78607" style="mask-type:luminance" maskUnits="userSpaceOnUse" x="7" y="3" width="26" height="34">
      <path d="M32.838 3.55859H7.11133V36.3808H32.838V3.55859Z" fill="white"/>
    </mask>
    <g mask="url(#mask0_2520_78607)">
      <path d="M25.258 6.51142L31.9936 13.1825C32.5669 13.7492 32.8492 14.3225 32.8403 14.9003C32.8314 15.4781 32.5847 16.0048 32.1025 16.4825C31.598 16.9825 31.0536 17.2359 30.4714 17.247C29.8892 17.2559 29.3114 16.9759 28.738 16.4092L21.8491 9.58698C21.0669 8.81142 20.3114 8.26253 19.5847 7.94031C18.858 7.61809 18.0936 7.56698 17.2936 7.7892C16.4914 8.0092 15.6314 8.57587 14.7091 9.48698C13.438 10.747 12.8314 11.9292 12.8936 13.0336C12.9558 14.1381 13.5869 15.2848 14.7847 16.4692L21.7291 23.3493C22.3092 23.9226 22.5936 24.4959 22.5847 25.0648C22.5758 25.6359 22.3269 26.1626 21.8358 26.6493C21.3469 27.1337 20.8069 27.387 20.2202 27.407C19.6336 27.427 19.0491 27.1493 18.4714 26.5759L11.7358 19.9048C10.6402 18.8203 9.84913 17.7936 9.36247 16.8248C8.8758 15.8559 8.69358 14.7603 8.82025 13.5381C8.93358 12.4914 9.26913 11.4781 9.82913 10.4959C10.3869 9.51365 11.1869 8.5092 12.2247 7.48031C13.4602 6.25587 14.6402 5.31809 15.7647 4.66476C16.8869 4.01142 17.9736 3.6492 19.0225 3.57365C20.0736 3.49809 21.1091 3.70698 22.1336 4.20031C23.158 4.69365 24.198 5.46253 25.2558 6.51142H25.258Z" fill="url(#paint0_linear_2520_78607)"/>
      <path d="M14.6915 33.4278L7.9582 26.7566C7.38486 26.1878 7.10264 25.6166 7.11153 25.0389C7.12042 24.4611 7.36709 23.9344 7.84931 23.4566C8.35375 22.9566 8.8982 22.7033 9.48042 22.6922C10.0626 22.6833 10.6404 22.9611 11.2138 23.53L18.1004 30.3522C18.8849 31.1278 19.6382 31.6766 20.3649 31.9989C21.0915 32.3211 21.856 32.37 22.6582 32.15C23.4604 31.93 24.3204 31.3633 25.2427 30.45C26.5138 29.19 27.1204 28.0078 27.0582 26.9033C26.996 25.7989 26.3649 24.6522 25.1671 23.4655L21.4671 19.8322C20.8871 19.2589 20.6026 18.6856 20.6115 18.1167C20.6204 17.5456 20.8693 17.0189 21.3604 16.5322C21.8493 16.0478 22.3893 15.7944 22.976 15.7744C23.5627 15.7544 24.1471 16.0322 24.7249 16.6056L28.2138 20.03C29.3093 21.1144 30.1004 22.1411 30.5871 23.11C31.0738 24.0789 31.256 25.1744 31.1293 26.3966C31.016 27.4433 30.6804 28.4566 30.1204 29.4389C29.5627 30.4211 28.7627 31.4255 27.7249 32.4544C26.4893 33.6789 25.3093 34.6166 24.1849 35.27C23.0604 35.9233 21.9738 36.2878 20.9226 36.3633C19.8715 36.4389 18.836 36.23 17.8115 35.7366C16.7871 35.2433 15.7471 34.4744 14.6893 33.4255L14.6915 33.4278Z" fill="url(#paint1_linear_2520_78607)"/>
      <path d="M18.8913 16.2162C20.2573 16.2162 21.3646 15.1088 21.3646 13.7429C21.3646 12.3769 20.2573 11.2695 18.8913 11.2695C17.5253 11.2695 16.418 12.3769 16.418 13.7429C16.418 15.1088 17.5253 16.2162 18.8913 16.2162Z" fill="url(#paint2_radial_2520_78607)"/>
    </g>
  </g>
  <defs>
    <linearGradient id="paint0_linear_2520_78607" x1="30.8858" y1="10.398" x2="10.012" y2="19.6744" gradientUnits="userSpaceOnUse">
      <stop stop-color="#201C1B"/>
      <stop offset="0.36" stop-color="#77390D"/>
      <stop offset="0.67" stop-color="#EA8101"/>
      <stop offset="1" stop-color="#F4B852"/>
    </linearGradient>
    <linearGradient id="paint1_linear_2520_78607" x1="9.64071" y1="29.816" x2="33.8296" y2="22.6169" gradientUnits="userSpaceOnUse">
      <stop stop-color="#1F1D1C"/>
      <stop offset="0.37" stop-color="#77390D"/>
      <stop offset="0.67" stop-color="#EA8101"/>
      <stop offset="1" stop-color="#F4FB52"/>
    </linearGradient>
    <radialGradient id="paint2_radial_2520_78607" cx="0" cy="0" r="1" gradientUnits="userSpaceOnUse" gradientTransform="translate(18.8913 13.7451) scale(2.47333)">
      <stop stop-color="#F4B852"/>
      <stop offset="0.33" stop-color="#EA8101"/>
      <stop offset="0.64" stop-color="#77390D"/>
      <stop offset="1" stop-color="#211C1D"/>
    </radialGradient>
    <clipPath id="clip0_2520_78607">
      <rect width="40" height="40" rx="10" fill="white"/>
    </clipPath>
  </defs>
</svg>
