<svg width="40" height="40" viewBox="0 0 40 40" fill="none" xmlns="http://www.w3.org/2000/svg">
<g clip-path="url(#clip0_2241_120793)">
<rect width="40" height="40" rx="10" fill="#3396FF"/>
<path d="M20.0008 39.9501C31.0189 39.9501 39.9508 31.0181 39.9508 20C39.9508 8.98197 31.0189 0.0500488 20.0008 0.0500488C8.9827 0.0500488 0.0507812 8.98197 0.0507812 20C0.0507812 31.0181 8.9827 39.9501 20.0008 39.9501Z" fill="#3396FF"/>
<path d="M12.2528 14.8965C16.5319 10.7236 23.4699 10.7236 27.749 14.8965L28.264 15.3987C28.478 15.6073 28.478 15.9456 28.264 16.1542L26.5023 17.8722C26.3953 17.9765 26.2219 17.9765 26.1149 17.8722L25.4062 17.1811C22.4209 14.27 17.5809 14.27 14.5956 17.1811L13.8366 17.9212C13.7296 18.0255 13.5562 18.0255 13.4492 17.9212L11.6875 16.2032C11.4735 15.9946 11.4735 15.6563 11.6875 15.4477L12.2528 14.8965ZM31.3925 18.4494L32.9604 19.9784C33.1744 20.187 33.1744 20.5253 32.9604 20.7339L25.8904 27.6283C25.6765 27.837 25.3296 27.837 25.1156 27.6283L20.0978 22.7352C20.0443 22.683 19.9576 22.683 19.9041 22.7352L14.8863 27.6283C14.6724 27.837 14.3255 27.837 14.1115 27.6283L7.04133 20.7338C6.82737 20.5252 6.82737 20.1869 7.04133 19.9783L8.60928 18.4493C8.82324 18.2407 9.17013 18.2407 9.38409 18.4493L14.402 23.3425C14.4555 23.3947 14.5422 23.3947 14.5957 23.3425L19.6134 18.4493C19.8273 18.2406 20.1742 18.2406 20.3882 18.4493L25.4061 23.3425C25.4596 23.3947 25.5463 23.3947 25.5998 23.3425L30.6177 18.4494C30.8316 18.2407 31.1785 18.2407 31.3925 18.4494Z" fill="white"/>
</g>
<defs>
<clipPath id="clip0_2241_120793">
<rect width="40" height="40" rx="10" fill="white"/>
</clipPath>
</defs>
</svg>
